<?xml version="1.0" encoding="UTF-8"?>
<svg width="2000" height="3000"><g transform="translate(30, 30)"><line x1="50" y1="10" x2="50" y2="1076" style="stroke:blue;stroke-width:2"/><line x1="25" y1="1076" x2="75" y2="1076" style="stroke:blue;stroke-width:2"/><text x="25" y="1096">Total references, allusions, and persons in Ulysses: 1076</text><rect x="100" y="10" width="200" height="75" style="fill:red"/><text x="100" y="40">Telemachiad References: 75</text><rect x="100" y="85" width="200" height="48" style="fill:blue"/><text x="100" y="105">Telemachiad Allusions: 48</text><rect x="100" y="133" width="200" height="50" style="fill:yellow"/><text x="100" y="153">Telemachiad Persons: 50</text><rect x="350" y="10" width="200" height="180" style="fill:red"/><text x="350" y="40">Wanderings References: 180</text><rect x="350" y="190" width="200" height="56" style="fill:blue"/><text x="350" y="210">Wanderings Allusions: 56</text><rect x="350" y="246" width="200" height="52" style="fill:yellow"/><text x="350" y="266">Wanderings Persons: 52</text><rect x="600" y="10" width="200" height="254" style="fill:red"/><text x="600" y="40">Homecoming References: 254</text><rect x="600" y="264" width="200" height="77" style="fill:blue"/><text x="600" y="284">Homecoming Allusions: 77</text><rect x="600" y="341" width="200" height="284" style="fill:yellow"/><text x="600" y="361">Homecoming Persons: 284</text><g><line x1="25" y1="32" x2="75" y2="32" style="stroke:pink;stroke-width:2"/><line x1="25" y1="34" x2="75" y2="34" style="stroke:pink;stroke-width:2"/><line x1="25" y1="9" x2="75" y2="9" style="stroke:pink;stroke-width:2"/><line x1="25" y1="0" x2="75" y2="0" style="stroke:orange;stroke-width:2"/><line x1="25" y1="0" x2="75" y2="0" style="stroke:orange;stroke-width:2"/><line x1="25" y1="0" x2="75" y2="0" style="stroke:orange;stroke-width:2"/><line x1="25" y1="0" x2="75" y2="0" style="stroke:purple;stroke-width:2"/><line x1="25" y1="0" x2="75" y2="0" style="stroke:purple;stroke-width:2"/><line x1="25" y1="0" x2="75" y2="0" style="stroke:purple;stroke-width:2"/></g><g><line x1="25" y1="15" x2="75" y2="15" style="stroke:pink;stroke-width:2"/><line x1="25" y1="0" x2="75" y2="0" style="stroke:pink;stroke-width:2"/><line x1="25" y1="41" x2="75" y2="41" style="stroke:pink;stroke-width:2"/><line x1="25" y1="0" x2="75" y2="0" style="stroke:orange;stroke-width:2"/><line x1="25" y1="0" x2="75" y2="0" style="stroke:orange;stroke-width:2"/><line x1="25" y1="0" x2="75" y2="0" style="stroke:orange;stroke-width:2"/><line x1="25" y1="0" x2="75" y2="0" style="stroke:purple;stroke-width:2"/><line x1="25" y1="0" x2="75" y2="0" style="stroke:purple;stroke-width:2"/><line x1="25" y1="0" x2="75" y2="0" style="stroke:purple;stroke-width:2"/></g><g><line x1="25" y1="0" x2="75" y2="0" style="stroke:pink;stroke-width:2"/><line x1="25" y1="0" x2="75" y2="0" style="stroke:pink;stroke-width:2"/><line x1="25" y1="0" x2="75" y2="0" style="stroke:pink;stroke-width:2"/><line x1="25" y1="0" x2="75" y2="0" style="stroke:orange;stroke-width:2"/><line x1="25" y1="0" x2="75" y2="0" style="stroke:orange;stroke-width:2"/><line x1="25" y1="0" x2="75" y2="0" style="stroke:orange;stroke-width:2"/><line x1="25" y1="34" x2="75" y2="34" style="stroke:purple;stroke-width:2"/><line x1="25" y1="118" x2="75" y2="118" style="stroke:purple;stroke-width:2"/><line x1="25" y1="22" x2="75" y2="22" style="stroke:purple;stroke-width:2"/></g><g><line x1="25" y1="0" x2="75" y2="0" style="stroke:pink;stroke-width:2"/><line x1="25" y1="0" x2="75" y2="0" style="stroke:pink;stroke-width:2"/><line x1="25" y1="0" x2="75" y2="0" style="stroke:pink;stroke-width:2"/><line x1="25" y1="27" x2="75" y2="27" style="stroke:orange;stroke-width:2"/><line x1="25" y1="79" x2="75" y2="79" style="stroke:orange;stroke-width:2"/><line x1="25" y1="19" x2="75" y2="19" style="stroke:orange;stroke-width:2"/><line x1="25" y1="0" x2="75" y2="0" style="stroke:purple;stroke-width:2"/><line x1="25" y1="0" x2="75" y2="0" style="stroke:purple;stroke-width:2"/><line x1="25" y1="0" x2="75" y2="0" style="stroke:purple;stroke-width:2"/></g><g><line x1="25" y1="0" x2="75" y2="0" style="stroke:pink;stroke-width:2"/><line x1="25" y1="0" x2="75" y2="0" style="stroke:pink;stroke-width:2"/><line x1="25" y1="0" x2="75" y2="0" style="stroke:pink;stroke-width:2"/><line x1="25" y1="0" x2="75" y2="0" style="stroke:orange;stroke-width:2"/><line x1="25" y1="3" x2="75" y2="3" style="stroke:orange;stroke-width:2"/><line x1="25" y1="8" x2="75" y2="8" style="stroke:orange;stroke-width:2"/><line x1="25" y1="0" x2="75" y2="0" style="stroke:purple;stroke-width:2"/><line x1="25" y1="0" x2="75" y2="0" style="stroke:purple;stroke-width:2"/><line x1="25" y1="0" x2="75" y2="0" style="stroke:purple;stroke-width:2"/></g><g><line x1="25" y1="0" x2="75" y2="0" style="stroke:pink;stroke-width:2"/><line x1="25" y1="0" x2="75" y2="0" style="stroke:pink;stroke-width:2"/><line x1="25" y1="0" x2="75" y2="0" style="stroke:pink;stroke-width:2"/><line x1="25" y1="3" x2="75" y2="3" style="stroke:orange;stroke-width:2"/><line x1="25" y1="53" x2="75" y2="53" style="stroke:orange;stroke-width:2"/><line x1="25" y1="0" x2="75" y2="0" style="stroke:orange;stroke-width:2"/><line x1="25" y1="0" x2="75" y2="0" style="stroke:purple;stroke-width:2"/><line x1="25" y1="0" x2="75" y2="0" style="stroke:purple;stroke-width:2"/><line x1="25" y1="0" x2="75" y2="0" style="stroke:purple;stroke-width:2"/></g><g><line x1="25" y1="0" x2="75" y2="0" style="stroke:pink;stroke-width:2"/><line x1="25" y1="0" x2="75" y2="0" style="stroke:pink;stroke-width:2"/><line x1="25" y1="0" x2="75" y2="0" style="stroke:pink;stroke-width:2"/><line x1="25" y1="26" x2="75" y2="26" style="stroke:orange;stroke-width:2"/><line x1="25" y1="45" x2="75" y2="45" style="stroke:orange;stroke-width:2"/><line x1="25" y1="25" x2="75" y2="25" style="stroke:orange;stroke-width:2"/><line x1="25" y1="0" x2="75" y2="0" style="stroke:purple;stroke-width:2"/><line x1="25" y1="0" x2="75" y2="0" style="stroke:purple;stroke-width:2"/><line x1="25" y1="0" x2="75" y2="0" style="stroke:purple;stroke-width:2"/></g><g><line x1="25" y1="0" x2="75" y2="0" style="stroke:pink;stroke-width:2"/><line x1="25" y1="0" x2="75" y2="0" style="stroke:pink;stroke-width:2"/><line x1="25" y1="0" x2="75" y2="0" style="stroke:pink;stroke-width:2"/><line x1="25" y1="0" x2="75" y2="0" style="stroke:orange;stroke-width:2"/><line x1="25" y1="0" x2="75" y2="0" style="stroke:orange;stroke-width:2"/><line x1="25" y1="0" x2="75" y2="0" style="stroke:orange;stroke-width:2"/><line x1="25" y1="43" x2="75" y2="43" style="stroke:purple;stroke-width:2"/><line x1="25" y1="61" x2="75" y2="61" style="stroke:purple;stroke-width:2"/><line x1="25" y1="262" x2="75" y2="262" style="stroke:purple;stroke-width:2"/></g><g><line x1="25" y1="0" x2="75" y2="0" style="stroke:pink;stroke-width:2"/><line x1="25" y1="0" x2="75" y2="0" style="stroke:pink;stroke-width:2"/><line x1="25" y1="0" x2="75" y2="0" style="stroke:pink;stroke-width:2"/><line x1="25" y1="0" x2="75" y2="0" style="stroke:orange;stroke-width:2"/><line x1="25" y1="0" x2="75" y2="0" style="stroke:orange;stroke-width:2"/><line x1="25" y1="0" x2="75" y2="0" style="stroke:orange;stroke-width:2"/><line x1="25" y1="0" x2="75" y2="0" style="stroke:purple;stroke-width:2"/><line x1="25" y1="75" x2="75" y2="75" style="stroke:purple;stroke-width:2"/><line x1="25" y1="0" x2="75" y2="0" style="stroke:purple;stroke-width:2"/></g><g><line x1="25" y1="1" x2="75" y2="1" style="stroke:pink;stroke-width:2"/><line x1="25" y1="41" x2="75" y2="41" style="stroke:pink;stroke-width:2"/><line x1="25" y1="0" x2="75" y2="0" style="stroke:pink;stroke-width:2"/><line x1="25" y1="0" x2="75" y2="0" style="stroke:orange;stroke-width:2"/><line x1="25" y1="0" x2="75" y2="0" style="stroke:orange;stroke-width:2"/><line x1="25" y1="0" x2="75" y2="0" style="stroke:orange;stroke-width:2"/><line x1="25" y1="0" x2="75" y2="0" style="stroke:purple;stroke-width:2"/><line x1="25" y1="0" x2="75" y2="0" style="stroke:purple;stroke-width:2"/><line x1="25" y1="0" x2="75" y2="0" style="stroke:purple;stroke-width:2"/></g><text x="-10" y="-10">The line is a chapter by chapter comparison of the number of allusions, references, and persons in each section, with Telemachiad pink, Wanderings orange, and Homecoming purple.</text></g></svg>