<?xml version="1.0" encoding="UTF-8"?>
<svg xmlns="http://www.w3.org/2000/svg" width="100%" height="110%"><g alignment-baseline="baseline" transform="translate (25, 40)"><text x="60" y="-10" fill="black" style="font-size:25px">Speaker Counts in Hamilton</text><line x1="25" y1="500" x2="400" y2="500" stroke="black" stroke-width="3"/><line x1="25" y1="500" x2="25" y2="0" stroke="black" stroke-width="3"/><line stroke-dasharray="2, 3" x1="25" y1="200" x2="400" y2="200" stroke="black" stroke-width="2"/><text x="-10" y="200" fill="black" style="font-size:17px;">150</text><line stroke-dasharray="2, 3" x1="25" y1="100" x2="400" y2="100" stroke="black" stroke-width="2"/><text x="-10" y="100" fill="black" style="font-size:17px;">250+</text><line stroke-dasharray="2, 3" x1="25" y1="400" x2="400" y2="400" stroke="black" stroke-width="2"/><text x="-10" y="400" fill="black" style="font-size:17px;">100</text><line stroke-dasharray="2, 3" x1="25" y1="300" x2="400" y2="300" stroke="black" stroke-width="2"/><text x="-10" y="300" fill="black" style="font-size:17px;">200</text><text x="-10" y="500" fill="black" style="font-size:17px;">0</text><rect x="50" y="0" width="30" height="498.4" fill="red"/><text x="65" y="510" fill="red" style="font-size:17px; writing-mode: tb; glyph-orientation-vertical: 5">Hamilton 356</text><rect x="100" y="50" width="30" height="448" fill="orange"/><text x="115" y="510" fill="orange" style="font-size:17px; writing-mode: tb; glyph-orientation-vertical: 5">Burr 224</text><rect x="150" y="294" width="30" height="204" fill="yellow"/><text x="165" y="510" fill="yellow" style="font-size:17px; writing-mode: tb; glyph-orientation-vertical: 5">Eliza 102</text><rect x="200" y="347" width="30" height="152" fill="green"/><text x="215" y="510" fill="green" style="font-size:17px; writing-mode: tb; glyph-orientation-vertical: 5">Jefferson 76</text><rect x="250" y="417" width="30" height="82" fill="blue"/><text x="265" y="510" fill="blue" style="font-size:17px; writing-mode: tb; glyph-orientation-vertical: 5">Laurens 41</text><rect x="300" y="260" width="30" height="240" fill="purple"/><text x="315" y="510" fill="purple" style="font-size:17px; writing-mode: tb; glyph-orientation-vertical: 5">Washington 120</text></g></svg>