<?xml version="1.0" encoding="UTF-8"?>
<svg xmlns="http://www.w3.org/2000/svg" width="500" height="3000"><g transform="translate(30, 100)"><line x1="60" y1="0" x2="60" y2="2555" style="stroke:black;stroke-width:5"/><g><line x1="40" y1="0" x2="150" y2="0" style="stroke:black;stroke-width:5"/><text x="5" y="0">1818</text><circle cx="85" cy="0" r="1" stroke="red" fill="purple" stroke-width="4"/><text x="155" y="0">1</text></g><g><line x1="40" y1="365" x2="150" y2="365" style="stroke:black;stroke-width:5"/><text x="5" y="365">1819</text><circle cx="85" cy="365" r="18" stroke="red" fill="purple" stroke-width="4"/><text x="155" y="365">18</text></g><g><line x1="40" y1="730" x2="150" y2="730" style="stroke:black;stroke-width:5"/><text x="5" y="730">1820</text><circle cx="85" cy="730" r="10" stroke="red" fill="purple" stroke-width="4"/><text x="155" y="730">10</text></g><g><line x1="40" y1="1095" x2="150" y2="1095" style="stroke:black;stroke-width:5"/><text x="5" y="1095">1821</text><circle cx="85" cy="1095" r="17" stroke="red" fill="purple" stroke-width="4"/><text x="155" y="1095">17</text></g><g><line x1="40" y1="1460" x2="150" y2="1460" style="stroke:black;stroke-width:5"/><text x="5" y="1460">1822</text><circle cx="85" cy="1460" r="5" stroke="red" fill="purple" stroke-width="4"/><text x="155" y="1460">5</text></g><g><line x1="40" y1="1825" x2="150" y2="1825" style="stroke:black;stroke-width:5"/><text x="5" y="1825">1823</text><circle cx="85" cy="1825" r="4" stroke="red" fill="purple" stroke-width="4"/><text x="155" y="1825">4</text></g><g><line x1="40" y1="2190" x2="150" y2="2190" style="stroke:black;stroke-width:5"/><text x="5" y="2190">1824</text><circle cx="85" cy="2190" r="1" stroke="red" fill="purple" stroke-width="4"/><text x="155" y="2190">1</text></g><g><line x1="40" y1="2555" x2="150" y2="2555" style="stroke:black;stroke-width:5"/><text x="5" y="2555">1825</text><circle cx="85" cy="2555" r="4" stroke="red" fill="purple" stroke-width="4"/><text x="155" y="2555">4</text></g></g></svg>