<?xml version="1.0" encoding="UTF-8"?>
<svg width="2000" height="7000" viewBox="0 0 2000 3000"><g transform="translate(50,30)"><rect x="65" y="525" width="75" height="376.2" style="fill:rgb(255, 77, 77)"/> (:Bar for the count of allusion/@who in wanderings:)
    <rect x="65" y="325" width="75" height="201.6" style="fill:rgb(255, 179, 179)"/> (:Bar for the count of allusion/@to in wanderings:)
      <rect x="190" y="675" width="75" height="224.1" style="fill:rgb(255, 77, 77)"/><rect x="190" y="89" width="75" height="588.3" style="fill:rgb(255, 179, 179)"/><rect x="315" y="685" width="75" height="214" style="fill:rgb(255, 77, 77)"/><rect x="315" y="420" width="75" height="266" style="fill:rgb(255, 179, 179)"/><text x="190" y="920" fill="red">Homecoming</text><text x="315" y="920" fill="red">Telemachiad</text><text x="65" y="920" fill="red">Wanderings</text><text x="20" y="901" fill="black">0</text><text x="0" y="801" fill="black">10</text><text x="0" y="701" fill="black">20</text><text x="0" y="601" fill="black">30</text><text x="0" y="501" fill="black">40</text><text x="0" y="401" fill="black">50</text><text x="0" y="301" fill="black">60</text><text x="0" y="201" fill="black">70</text><text x="0" y="101" fill="black">80</text><text x="50" y="50" fill="black">Allusion divided by Sections of Ulysses</text><line x1="40" y1="900" x2="500" y2="900" style="stroke:rgb(0,0,0);stroke-width:2"/><line x1="41" y1="75" x2="40" y2="901" style="stroke:rgb(0,0,0);stroke-width:2"/></g></svg>