<svg xmlns="http://www.w3.org/2000/svg" width="500" height="3055"><!--add additional space for title -->
    <g transform="translate(30, 100)"><!-- moving 0,0 to 30,-100 :)--><!-- <line x1="50" y1="0" x2="50" y2="{($totalLetterYears * $stretchFactor)}" style="stroke: #3333ff; stroke-width:3;"/>  Using style attribute with css styling syntax inside.-->
        <line x1="50" y1="0" x2="50" y2="2555" stroke="#3333ff" stroke-width="3"/>
        <g>
            <line x1="40" y1="0" x2="60" y2="0" stroke="purple" stroke-width="2"/>
            <text x="60" y="0" color="green">1818</text>
            <circle cx="20" cy="0" r="1" stroke="black" fill="red" stroke-width="4"/>
            <text x="100" y="0" color="yellow">1</text>
            <line x1="190" y1="409" x2="190" y2="2099" stroke="green" stroke-width="3"/>
            <text x="200" y="409" color="black">first letter - 1819-02-13</text>
            <text x="200" y="2099" color="black">last letter - 1823-10-01</text>
            <text x="170" y="389" color="purple">Haydon Letters</text>
        </g>
        <g>
            <line x1="40" y1="365" x2="60" y2="365" stroke="purple" stroke-width="2"/>
            <text x="60" y="365" color="green">1819</text>
            <circle cx="20" cy="365" r="20" stroke="black" fill="red" stroke-width="4"/>
            <text x="100" y="365" color="yellow">20</text>
            <line x1="190" y1="409" x2="190" y2="2099" stroke="green" stroke-width="3"/>
            <text x="200" y="409" color="black">first letter - 1819-02-13</text>
            <text x="200" y="2099" color="black">last letter - 1823-10-01</text>
            <text x="170" y="389" color="purple">Haydon Letters</text>
        </g>
        <g>
            <line x1="40" y1="730" x2="60" y2="730" stroke="purple" stroke-width="2"/>
            <text x="60" y="730" color="green">1820</text>
            <circle cx="20" cy="730" r="10" stroke="black" fill="red" stroke-width="4"/>
            <text x="100" y="730" color="yellow">10</text>
            <line x1="190" y1="409" x2="190" y2="2099" stroke="green" stroke-width="3"/>
            <text x="200" y="409" color="black">first letter - 1819-02-13</text>
            <text x="200" y="2099" color="black">last letter - 1823-10-01</text>
            <text x="170" y="389" color="purple">Haydon Letters</text>
        </g>
        <g>
            <line x1="40" y1="1095" x2="60" y2="1095" stroke="purple" stroke-width="2"/>
            <text x="60" y="1095" color="green">1821</text>
            <circle cx="20" cy="1095" r="16" stroke="black" fill="red" stroke-width="4"/>
            <text x="100" y="1095" color="yellow">16</text>
            <line x1="190" y1="409" x2="190" y2="2099" stroke="green" stroke-width="3"/>
            <text x="200" y="409" color="black">first letter - 1819-02-13</text>
            <text x="200" y="2099" color="black">last letter - 1823-10-01</text>
            <text x="170" y="389" color="purple">Haydon Letters</text>
        </g>
        <g>
            <line x1="40" y1="1460" x2="60" y2="1460" stroke="purple" stroke-width="2"/>
            <text x="60" y="1460" color="green">1822</text>
            <circle cx="20" cy="1460" r="5" stroke="black" fill="red" stroke-width="4"/>
            <text x="100" y="1460" color="yellow">5</text>
            <line x1="190" y1="409" x2="190" y2="2099" stroke="green" stroke-width="3"/>
            <text x="200" y="409" color="black">first letter - 1819-02-13</text>
            <text x="200" y="2099" color="black">last letter - 1823-10-01</text>
            <text x="170" y="389" color="purple">Haydon Letters</text>
        </g>
        <g>
            <line x1="40" y1="1825" x2="60" y2="1825" stroke="purple" stroke-width="2"/>
            <text x="60" y="1825" color="green">1823</text>
            <circle cx="20" cy="1825" r="9" stroke="black" fill="red" stroke-width="4"/>
            <text x="100" y="1825" color="yellow">9</text>
            <line x1="190" y1="409" x2="190" y2="2099" stroke="green" stroke-width="3"/>
            <text x="200" y="409" color="black">first letter - 1819-02-13</text>
            <text x="200" y="2099" color="black">last letter - 1823-10-01</text>
            <text x="170" y="389" color="purple">Haydon Letters</text>
        </g>
        <g>
            <line x1="40" y1="2190" x2="60" y2="2190" stroke="purple" stroke-width="2"/>
            <text x="60" y="2190" color="green">1824</text>
            <circle cx="20" cy="2190" r="1" stroke="black" fill="red" stroke-width="4"/>
            <text x="100" y="2190" color="yellow">1</text>
            <line x1="190" y1="409" x2="190" y2="2099" stroke="green" stroke-width="3"/>
            <text x="200" y="409" color="black">first letter - 1819-02-13</text>
            <text x="200" y="2099" color="black">last letter - 1823-10-01</text>
            <text x="170" y="389" color="purple">Haydon Letters</text>
        </g>
        <g>
            <line x1="40" y1="2555" x2="60" y2="2555" stroke="purple" stroke-width="2"/>
            <text x="60" y="2555" color="green">1825</text>
            <circle cx="20" cy="2555" r="4" stroke="black" fill="red" stroke-width="4"/>
            <text x="100" y="2555" color="yellow">4</text>
            <line x1="190" y1="409" x2="190" y2="2099" stroke="green" stroke-width="3"/>
            <text x="200" y="409" color="black">first letter - 1819-02-13</text>
            <text x="200" y="2099" color="black">last letter - 1823-10-01</text>
            <text x="170" y="389" color="purple">Haydon Letters</text>
        </g>
    </g>
</svg>