<?xml version="1.0" encoding="UTF-8"?>
<svg xmlns="http://www.w3.org/2000/svg" width="1000" height="1000" viewbox="0,0,1150,1150">
return
    <g transform="translate(100,500)"><text x="10" y="-475">Geographic Distribution of Families with more than 3 deaths in Brush Creek Section I</text><rect x="700" y="-500" height="425" width="200" style="stroke:black; stroke-width: 2; fill: none"/><text x="715" y="-470">Legend:</text><g><text x="715" y="-415">California</text><rect x="830" y="-430" height="20" width="20" style="stroke: black; stroke-width: 2; fill: #451ea8"/></g><g><text x="715" y="-370">Pennsylvania</text><rect x="830" y="-385" height="20" width="20" style="stroke: black; stroke-width: 2; fill: #1a83a3"/></g><g><text x="715" y="-325">West Virginia</text><rect x="830" y="-340" height="20" width="20" style="stroke: black; stroke-width: 2; fill: #ecd3ff"/></g><g><text x="715" y="-280">Ontario</text><rect x="830" y="-295" height="20" width="20" style="stroke: black; stroke-width: 2; fill: #050b7f"/></g><g><text x="715" y="-235">Ohio</text><rect x="830" y="-250" height="20" width="20" style="stroke: black; stroke-width: 2; fill: #449ee2"/></g><g><text x="715" y="-190">Colorado</text><rect x="830" y="-205" height="20" width="20" style="stroke: black; stroke-width: 2; fill: #0fa896"/></g><g><text x="715" y="-145">Florida</text><rect x="830" y="-160" height="20" width="20" style="stroke: black; stroke-width: 2; fill: #0a844b"/></g><g><text x="715" y="-100">Unmarked</text><rect x="830" y="-117" height="20" width="20" style="stroke: black; stroke-width: 2; fill: none"/></g><g><line x1="0" y1="-75" x2="594" y2="-75" style="stroke: black; stroke-width: 2"/><line x1="0" y1="-460" x2="0" y2="-74" style="stroke: black; stroke-width: 2"/><text x="-15" y="-340" style="writing-mode: tb; glyph-orientation-horizontal: 10">Number   of   Deaths</text><g><text x="52" y="-60" style="writing-mode: tb; glyph-orientation-horizontal: 5">Helman</text></g><g><text x="102" y="-60" style="writing-mode: tb; glyph-orientation-horizontal: 5">Gongaware</text></g><g><text x="138" y="-60" style="writing-mode: tb; glyph-orientation-horizontal: 5">Brezler</text></g><g><text x="184" y="-60" style="writing-mode: tb; glyph-orientation-horizontal: 5">McCaulley</text></g><g><text x="225" y="-60" style="writing-mode: tb; glyph-orientation-horizontal: 5">McCune</text></g><g><text x="270" y="-60" style="writing-mode: tb; glyph-orientation-horizontal: 5">Woodruff</text></g><g><text x="315" y="-60" style="writing-mode: tb; glyph-orientation-horizontal: 5">Lauffer</text></g><g><text x="352" y="-60" style="writing-mode: tb; glyph-orientation-horizontal: 5">King</text></g><g><text x="396" y="-60" style="writing-mode: tb; glyph-orientation-horizontal: 5">Bostwick</text></g><g><text x="440" y="-60" style="writing-mode: tb; glyph-orientation-horizontal: 5">Vogel</text></g><g><text x="484" y="-60" style="writing-mode: tb; glyph-orientation-horizontal: 5">Walthour</text></g><g/>          (: I am definitely doing something wrong here with the code as I can not figure out how to get the stacked bar graphs to show up on the graph. I kinda understand the principles of the code that was posted as an example on newtfire and I think I properly enocded it to fit with my variables, but I am missing something for sure. I'm thinking that probably my values for the X and Y axis may be affecting it as I don't think I coded those properly earlier?? :)

</g></g></svg>