<?xml version="1.0" encoding="UTF-8"?>
<svg xmlns="http://www.w3.org/2000/svg" width="500" height="3000"><g transform="translate(120,100)"><line x1="0" y1="0" x2="0" y2="2555" style="stroke:lightpink;stroke-width:30"/><g><line x1="-25" y1="0" x2="100" y2="0" style="stroke:black;stroke-width:2"/><text x="-65" y="0">1818</text><circle cx="5" cy="5" r="5" stroke="black" stroke-width="1" fill="#F75D59"/><text x="-90" y="0">Letters coded: 1</text></g><g><line x1="-25" y1="365" x2="100" y2="365" style="stroke:black;stroke-width:2"/><text x="-65" y="365">1819</text><circle cx="5" cy="5" r="5" stroke="black" stroke-width="1" fill="#F75D59"/><text x="-90" y="365">Letters coded: 1</text></g><g><line x1="-25" y1="730" x2="100" y2="730" style="stroke:black;stroke-width:2"/><text x="-65" y="730">1820</text><circle cx="5" cy="5" r="5" stroke="black" stroke-width="1" fill="#F75D59"/><text x="-90" y="730">Letters coded: 1</text></g><g><line x1="-25" y1="1095" x2="100" y2="1095" style="stroke:black;stroke-width:2"/><text x="-65" y="1095">1821</text><circle cx="5" cy="5" r="5" stroke="black" stroke-width="1" fill="#F75D59"/><text x="-90" y="1095">Letters coded: 1</text></g><g><line x1="-25" y1="1460" x2="100" y2="1460" style="stroke:black;stroke-width:2"/><text x="-65" y="1460">1822</text><circle cx="5" cy="5" r="5" stroke="black" stroke-width="1" fill="#F75D59"/><text x="-90" y="1460">Letters coded: 1</text></g><g><line x1="-25" y1="1825" x2="100" y2="1825" style="stroke:black;stroke-width:2"/><text x="-65" y="1825">1823</text><circle cx="5" cy="5" r="5" stroke="black" stroke-width="1" fill="#F75D59"/><text x="-90" y="1825">Letters coded: 1</text></g><g><line x1="-25" y1="2190" x2="100" y2="2190" style="stroke:black;stroke-width:2"/><text x="-65" y="2190">1824</text><circle cx="5" cy="5" r="5" stroke="black" stroke-width="1" fill="#F75D59"/><text x="-90" y="2190">Letters coded: 1</text></g><g><line x1="-25" y1="2555" x2="100" y2="2555" style="stroke:black;stroke-width:2"/><text x="-65" y="2555">1825</text><circle cx="5" cy="5" r="5" stroke="black" stroke-width="1" fill="#F75D59"/><text x="-90" y="2555">Letters coded: 1</text></g></g></svg>