<?xml version="1.0" encoding="UTF-8"?>
<svg xmlns="http://www.w3.org/2000/svg" width="500" height="3000"><g transform="translate(140,100)"><line x1="0" y1="0" x2="0" y2="2555" style="stroke:lightpink;stroke-width:30"/><line x1="110" y1="409" x2="110" y2="2099" style="stroke:lightblue;stroke-width:30"/><g><line x1="-25" y1="0" x2="100" y2="0" style="stroke:black;stroke-width:2"/><text x="-65" y="0">1818</text><circle cx="0" cy="0" r="1" stroke="black" stroke-width="1" fill="#F75D59"/><text x="-135" y="30">Letters coded: 1</text><text x="140" y="409"> First Letter: 1819-02-13</text><text x="140" y="2099"> Last Letter: 1823-10-01</text><text x="140" y="780" style="writing-mode: tb;">Haydon Correspondence </text></g><g><line x1="-25" y1="365" x2="100" y2="365" style="stroke:black;stroke-width:2"/><text x="-65" y="365">1819</text><circle cx="0" cy="365" r="18" stroke="black" stroke-width="1" fill="#F75D59"/><text x="-135" y="395">Letters coded: 18</text><text x="140" y="409"> First Letter: 1819-02-13</text><text x="140" y="2099"> Last Letter: 1823-10-01</text><text x="140" y="780" style="writing-mode: tb;">Haydon Correspondence </text></g><g><line x1="-25" y1="730" x2="100" y2="730" style="stroke:black;stroke-width:2"/><text x="-65" y="730">1820</text><circle cx="0" cy="730" r="10" stroke="black" stroke-width="1" fill="#F75D59"/><text x="-135" y="760">Letters coded: 10</text><text x="140" y="409"> First Letter: 1819-02-13</text><text x="140" y="2099"> Last Letter: 1823-10-01</text><text x="140" y="780" style="writing-mode: tb;">Haydon Correspondence </text></g><g><line x1="-25" y1="1095" x2="100" y2="1095" style="stroke:black;stroke-width:2"/><text x="-65" y="1095">1821</text><circle cx="0" cy="1095" r="17" stroke="black" stroke-width="1" fill="#F75D59"/><text x="-135" y="1125">Letters coded: 17</text><text x="140" y="409"> First Letter: 1819-02-13</text><text x="140" y="2099"> Last Letter: 1823-10-01</text><text x="140" y="780" style="writing-mode: tb;">Haydon Correspondence </text></g><g><line x1="-25" y1="1460" x2="100" y2="1460" style="stroke:black;stroke-width:2"/><text x="-65" y="1460">1822</text><circle cx="0" cy="1460" r="5" stroke="black" stroke-width="1" fill="#F75D59"/><text x="-135" y="1490">Letters coded: 5</text><text x="140" y="409"> First Letter: 1819-02-13</text><text x="140" y="2099"> Last Letter: 1823-10-01</text><text x="140" y="780" style="writing-mode: tb;">Haydon Correspondence </text></g><g><line x1="-25" y1="1825" x2="100" y2="1825" style="stroke:black;stroke-width:2"/><text x="-65" y="1825">1823</text><circle cx="0" cy="1825" r="4" stroke="black" stroke-width="1" fill="#F75D59"/><text x="-135" y="1855">Letters coded: 4</text><text x="140" y="409"> First Letter: 1819-02-13</text><text x="140" y="2099"> Last Letter: 1823-10-01</text><text x="140" y="780" style="writing-mode: tb;">Haydon Correspondence </text></g><g><line x1="-25" y1="2190" x2="100" y2="2190" style="stroke:black;stroke-width:2"/><text x="-65" y="2190">1824</text><circle cx="0" cy="2190" r="1" stroke="black" stroke-width="1" fill="#F75D59"/><text x="-135" y="2220">Letters coded: 1</text><text x="140" y="409"> First Letter: 1819-02-13</text><text x="140" y="2099"> Last Letter: 1823-10-01</text><text x="140" y="780" style="writing-mode: tb;">Haydon Correspondence </text></g><g><line x1="-25" y1="2555" x2="100" y2="2555" style="stroke:black;stroke-width:2"/><text x="-65" y="2555">1825</text><circle cx="0" cy="2555" r="4" stroke="black" stroke-width="1" fill="#F75D59"/><text x="-135" y="2585">Letters coded: 4</text><text x="140" y="409"> First Letter: 1819-02-13</text><text x="140" y="2099"> Last Letter: 1823-10-01</text><text x="140" y="780" style="writing-mode: tb;">Haydon Correspondence </text></g></g></svg>