<?xml version="1.0" encoding="UTF-8"?>
<svg xmlns="http://www.w3.org/2000/svg" width="100%" height="100%">
   <g transform="translate(50 850)"><!--The total number of chapters is 12.
         The max X value is 840--><!--The max count of speeches by Alice is: 61
          The max count of speeches by others is 76. 
          The max Y value is: 760-->
      <line x1="30"
            y1="0"
            x2="910"
            y2="0"
            stroke="black"
            stroke-width="1"/>
      <line x1="30"
            y1="0"
            x2="30"
            y2="-810"
            stroke="black"
            stroke-width="1"/>
      <text x="15" y="-100" text-anchor="middle">10</text>
      <line x1="30"
            x2="910"
            y1="-100"
            y2="-100"
            stroke="green"
            stroke-width=".5"
            stroke-dasharray="10"/>
      <text x="15" y="-200" text-anchor="middle">20</text>
      <line x1="30"
            x2="910"
            y1="-200"
            y2="-200"
            stroke="green"
            stroke-width=".5"
            stroke-dasharray="10"/>
      <text x="15" y="-300" text-anchor="middle">30</text>
      <line x1="30"
            x2="910"
            y1="-300"
            y2="-300"
            stroke="green"
            stroke-width=".5"
            stroke-dasharray="10"/>
      <text x="15" y="-400" text-anchor="middle">40</text>
      <line x1="30"
            x2="910"
            y1="-400"
            y2="-400"
            stroke="green"
            stroke-width=".5"
            stroke-dasharray="10"/>
      <text x="15" y="-500" text-anchor="middle">50</text>
      <line x1="30"
            x2="910"
            y1="-500"
            y2="-500"
            stroke="green"
            stroke-width=".5"
            stroke-dasharray="10"/>
      <text x="15" y="-600" text-anchor="middle">60</text>
      <line x1="30"
            x2="910"
            y1="-600"
            y2="-600"
            stroke="green"
            stroke-width=".5"
            stroke-dasharray="10"/>
      <text x="15" y="-700" text-anchor="middle">70</text>
      <line x1="30"
            x2="910"
            y1="-700"
            y2="-700"
            stroke="green"
            stroke-width=".5"
            stroke-dasharray="10"/>
      <text x="15" y="-800" text-anchor="middle">80</text>
      <line x1="30"
            x2="910"
            y1="-800"
            y2="-800"
            stroke="green"
            stroke-width=".5"
            stroke-dasharray="10"/>
      <text x="70" y="15" text-anchor="end" transform="rotate(-45 70, 15)">Ch. 1</text>
      <circle fill="red" r="5" cx="70" cy="-250"/>
      <circle fill="blue" r="5" cx="70" cy="-130"/>
      <line class="aliceLine"
            x1="70"
            y1="-250"
            x2="140"
            y2="-320"
            stroke="red"
            stroke-width="1"/>
      <line class="othersLine"
            x1="70"
            y1="-130"
            x2="140"
            y2="-480"
            stroke="blue"
            stroke-width="1"/>
      <text x="140"
            y="15"
            text-anchor="end"
            transform="rotate(-45 140, 15)">Ch. 2</text>
      <circle fill="red" r="5" cx="140" cy="-320"/>
      <circle fill="blue" r="5" cx="140" cy="-480"/>
      <line class="aliceLine"
            x1="140"
            y1="-320"
            x2="210"
            y2="-460"
            stroke="red"
            stroke-width="1"/>
      <line class="othersLine"
            x1="140"
            y1="-480"
            x2="210"
            y2="-420"
            stroke="blue"
            stroke-width="1"/>
      <text x="210"
            y="15"
            text-anchor="end"
            transform="rotate(-45 210, 15)">Ch. 3</text>
      <circle fill="red" r="5" cx="210" cy="-460"/>
      <circle fill="blue" r="5" cx="210" cy="-420"/>
      <line class="aliceLine"
            x1="210"
            y1="-460"
            x2="280"
            y2="-370"
            stroke="red"
            stroke-width="1"/>
      <line class="othersLine"
            x1="210"
            y1="-420"
            x2="280"
            y2="-520"
            stroke="blue"
            stroke-width="1"/>
      <text x="280"
            y="15"
            text-anchor="end"
            transform="rotate(-45 280, 15)">Ch. 4</text>
      <circle fill="red" r="5" cx="280" cy="-370"/>
      <circle fill="blue" r="5" cx="280" cy="-520"/>
      <line class="aliceLine"
            x1="280"
            y1="-370"
            x2="350"
            y2="-520"
            stroke="red"
            stroke-width="1"/>
      <line class="othersLine"
            x1="280"
            y1="-520"
            x2="350"
            y2="-430"
            stroke="blue"
            stroke-width="1"/>
      <text x="350"
            y="15"
            text-anchor="end"
            transform="rotate(-45 350, 15)">Ch. 5</text>
      <circle fill="red" r="5" cx="350" cy="-520"/>
      <circle fill="blue" r="5" cx="350" cy="-430"/>
      <line class="aliceLine"
            x1="350"
            y1="-520"
            x2="420"
            y2="-610"
            stroke="red"
            stroke-width="1"/>
      <line class="othersLine"
            x1="350"
            y1="-430"
            x2="420"
            y2="-590"
            stroke="blue"
            stroke-width="1"/>
      <text x="420"
            y="15"
            text-anchor="end"
            transform="rotate(-45 420, 15)">Ch. 6</text>
      <circle fill="red" r="5" cx="420" cy="-610"/>
      <circle fill="blue" r="5" cx="420" cy="-590"/>
      <line class="aliceLine"
            x1="420"
            y1="-610"
            x2="490"
            y2="-210"
            stroke="red"
            stroke-width="1"/>
      <line class="othersLine"
            x1="420"
            y1="-590"
            x2="490"
            y2="-610"
            stroke="blue"
            stroke-width="1"/>
      <text x="490"
            y="15"
            text-anchor="end"
            transform="rotate(-45 490, 15)">Ch. 7</text>
      <circle fill="red" r="5" cx="490" cy="-210"/>
      <circle fill="blue" r="5" cx="490" cy="-610"/>
      <line class="aliceLine"
            x1="490"
            y1="-210"
            x2="560"
            y2="-400"
            stroke="red"
            stroke-width="1"/>
      <line class="othersLine"
            x1="490"
            y1="-610"
            x2="560"
            y2="-560"
            stroke="blue"
            stroke-width="1"/>
      <text x="560"
            y="15"
            text-anchor="end"
            transform="rotate(-45 560, 15)">Ch. 8</text>
      <circle fill="red" r="5" cx="560" cy="-400"/>
      <circle fill="blue" r="5" cx="560" cy="-560"/>
      <line class="aliceLine"
            x1="560"
            y1="-400"
            x2="630"
            y2="-570"
            stroke="red"
            stroke-width="1"/>
      <line class="othersLine"
            x1="560"
            y1="-560"
            x2="630"
            y2="-760"
            stroke="blue"
            stroke-width="1"/>
      <text x="630"
            y="15"
            text-anchor="end"
            transform="rotate(-45 630, 15)">Ch. 9</text>
      <circle fill="red" r="5" cx="630" cy="-570"/>
      <circle fill="blue" r="5" cx="630" cy="-760"/>
      <line class="aliceLine"
            x1="630"
            y1="-570"
            x2="700"
            y2="0"
            stroke="red"
            stroke-width="1"/>
      <line class="othersLine"
            x1="630"
            y1="-760"
            x2="700"
            y2="0"
            stroke="blue"
            stroke-width="1"/>
      <text x="700"
            y="15"
            text-anchor="end"
            transform="rotate(-45 700, 15)">Ch. 10</text>
      <circle fill="red" r="5" cx="700" cy="0"/>
      <circle fill="blue" r="5" cx="700" cy="0"/>
      <line class="aliceLine"
            x1="700"
            y1="0"
            x2="770"
            y2="0"
            stroke="red"
            stroke-width="1"/>
      <line class="othersLine"
            x1="700"
            y1="0"
            x2="770"
            y2="0"
            stroke="blue"
            stroke-width="1"/>
      <text x="770"
            y="15"
            text-anchor="end"
            transform="rotate(-45 770, 15)">Ch. 11</text>
      <circle fill="red" r="5" cx="770" cy="0"/>
      <circle fill="blue" r="5" cx="770" cy="0"/>
      <line class="aliceLine"
            x1="770"
            y1="0"
            x2="840"
            y2="-90"
            stroke="red"
            stroke-width="1"/>
      <line class="othersLine"
            x1="770"
            y1="0"
            x2="840"
            y2="0"
            stroke="blue"
            stroke-width="1"/>
      <text x="840"
            y="15"
            text-anchor="end"
            transform="rotate(-45 840, 15)">Ch. 12</text>
      <circle fill="red" r="5" cx="840" cy="-90"/>
      <circle fill="blue" r="5" cx="840" cy="0"/>
   </g>
</svg>
