<?xml version="1.0" encoding="UTF-8"?>
<svg xmlns="http://www.w3.org/2000/svg" width="500" height="3000"><g transform="translate(30, 100) rotate(-90)"><line x1="25" y1="0" x2="25" y2="2555" style="stroke:#5F9EA0;stroke-width:7"/><line x1="121.5" y1="610" x2="121.5" y2="2045" style="stroke:#5F9EA0;stroke-width:7"/><text x="130" y="610">1819-02-13 - First Letter</text><text x="130" y="2045">1823-10-01 - Last Letter</text><g><line x1="21.5" y1="0" x2="125" y2="0" style="stroke:#00008B;stroke-width:4"/><text x="130" y="0">1818</text><circle cx="50" cy="0" r="1" stroke="#4169E1" fill="#4169E1" stroke-width="4"/></g><g><line x1="21.5" y1="365" x2="125" y2="365" style="stroke:#00008B;stroke-width:4"/><text x="130" y="365">1819</text><circle cx="50" cy="365" r="20" stroke="#4169E1" fill="#4169E1" stroke-width="4"/></g><g><line x1="21.5" y1="730" x2="125" y2="730" style="stroke:#00008B;stroke-width:4"/><text x="130" y="730">1820</text><circle cx="50" cy="730" r="10" stroke="#4169E1" fill="#4169E1" stroke-width="4"/></g><g><line x1="21.5" y1="1095" x2="125" y2="1095" style="stroke:#00008B;stroke-width:4"/><text x="130" y="1095">1821</text><circle cx="50" cy="1095" r="16" stroke="#4169E1" fill="#4169E1" stroke-width="4"/></g><g><line x1="21.5" y1="1460" x2="125" y2="1460" style="stroke:#00008B;stroke-width:4"/><text x="130" y="1460">1822</text><circle cx="50" cy="1460" r="5" stroke="#4169E1" fill="#4169E1" stroke-width="4"/></g><g><line x1="21.5" y1="1825" x2="125" y2="1825" style="stroke:#00008B;stroke-width:4"/><text x="130" y="1825">1823</text><circle cx="50" cy="1825" r="9" stroke="#4169E1" fill="#4169E1" stroke-width="4"/></g><g><line x1="21.5" y1="2190" x2="125" y2="2190" style="stroke:#00008B;stroke-width:4"/><text x="130" y="2190">1824</text><circle cx="50" cy="2190" r="1" stroke="#4169E1" fill="#4169E1" stroke-width="4"/></g><g><line x1="21.5" y1="2555" x2="125" y2="2555" style="stroke:#00008B;stroke-width:4"/><text x="130" y="2555">1825</text><circle cx="50" cy="2555" r="4" stroke="#4169E1" fill="#4169E1" stroke-width="4"/></g></g></svg>