<?xml version="1.0" encoding="UTF-8"?>
<svg xmlns="http://www.w3.org/2000/svg" width="10000" height="1000" viewbox="0 0 5000 500"><!--add additional space for title --><!-- <line x1="50" y1="0" x2="50" y2="{($totalLetterYears * $stretchFactor)}" style="stroke: #3333ff; stroke-width:3;"/>  Using style attribute with css styling syntax inside.--><g transform="translate(30, 100)"><!--moving 0,0 to 30,-100 :) --><line y1="50" x1="0" y2="50" x2="2555" stroke="#3333ff" stroke-width="3"/><g><line y1="40" x1="0" y2="60" x2="0" stroke="purple" stroke-width="2"/><text y="60" x="0" color="green">1818</text><circle cy="20" cx="0" r="1" stroke="black" fill="red" stroke-width="4"/><text y="100" x="0" color="yellow">1</text></g><g><line y1="40" x1="365" y2="60" x2="365" stroke="purple" stroke-width="2"/><text y="60" x="365" color="green">1819</text><circle cy="20" cx="365" r="20" stroke="black" fill="red" stroke-width="4"/><text y="100" x="365" color="yellow">20</text></g><g><line y1="40" x1="730" y2="60" x2="730" stroke="purple" stroke-width="2"/><text y="60" x="730" color="green">1820</text><circle cy="20" cx="730" r="10" stroke="black" fill="red" stroke-width="4"/><text y="100" x="730" color="yellow">10</text></g><g><line y1="40" x1="1095" y2="60" x2="1095" stroke="purple" stroke-width="2"/><text y="60" x="1095" color="green">1821</text><circle cy="20" cx="1095" r="16" stroke="black" fill="red" stroke-width="4"/><text y="100" x="1095" color="yellow">16</text></g><g><line y1="40" x1="1460" y2="60" x2="1460" stroke="purple" stroke-width="2"/><text y="60" x="1460" color="green">1822</text><circle cy="20" cx="1460" r="5" stroke="black" fill="red" stroke-width="4"/><text y="100" x="1460" color="yellow">5</text></g><g><line y1="40" x1="1825" y2="60" x2="1825" stroke="purple" stroke-width="2"/><text y="60" x="1825" color="green">1823</text><circle cy="20" cx="1825" r="9" stroke="black" fill="red" stroke-width="4"/><text y="100" x="1825" color="yellow">9</text></g><g><line y1="40" x1="2190" y2="60" x2="2190" stroke="purple" stroke-width="2"/><text y="60" x="2190" color="green">1824</text><circle cy="20" cx="2190" r="1" stroke="black" fill="red" stroke-width="4"/><text y="100" x="2190" color="yellow">1</text></g><g><line y1="40" x1="2555" y2="60" x2="2555" stroke="purple" stroke-width="2"/><text y="60" x="2555" color="green">1825</text><circle cy="20" cx="2555" r="4" stroke="black" fill="red" stroke-width="4"/><text y="100" x="2555" color="yellow">4</text></g> 
         for $si 
    </g></svg>