<?xml version="1.0" encoding="UTF-8"?>
<svg xmlns="http://www.w3.org/2000/svg" width="500" height="2800" viewBox="0,0,300,3200"><g transform="translate(30, 180)"><text x="0" y="-100" style="font-size:30px">Timeline of Mitford Letters</text><line x1="100" y1="0" x2="100" y2="2555" stroke="goldenrod" stroke-width="10"/><text y="409" x="210">Haydon's First Letter</text><text y="2099" x="210">Haydon's Last Letter</text><line y1="409" x1="200" y2="2099" x2="200" stroke="purple" stroke-width="10"/><g><line x1="100" y1="0" x2="150" y2="0" stroke="black" stroke-width="3"/><text x="90" y="0" transform="rotate(-90 90, 0)" text-anchor="middle">1818</text><circle cx="150" cy="0" r="0.5" stroke="goldenrod" fill="gold" stroke-width="4"/><text x="20" y="0" text-anchor="middle">1 Letter(s)</text></g><g><line x1="100" y1="365" x2="150" y2="365" stroke="black" stroke-width="3"/><text x="90" y="365" transform="rotate(-90 90, 365)" text-anchor="middle">1819</text><circle cx="150" cy="365" r="9" stroke="goldenrod" fill="gold" stroke-width="4"/><text x="20" y="365" text-anchor="middle">18 Letter(s)</text></g><g><line x1="100" y1="730" x2="150" y2="730" stroke="black" stroke-width="3"/><text x="90" y="730" transform="rotate(-90 90, 730)" text-anchor="middle">1820</text><circle cx="150" cy="730" r="5" stroke="goldenrod" fill="gold" stroke-width="4"/><text x="20" y="730" text-anchor="middle">10 Letter(s)</text></g><g><line x1="100" y1="1095" x2="150" y2="1095" stroke="black" stroke-width="3"/><text x="90" y="1095" transform="rotate(-90 90, 1095)" text-anchor="middle">1821</text><circle cx="150" cy="1095" r="8.5" stroke="goldenrod" fill="gold" stroke-width="4"/><text x="20" y="1095" text-anchor="middle">17 Letter(s)</text></g><g><line x1="100" y1="1460" x2="150" y2="1460" stroke="black" stroke-width="3"/><text x="90" y="1460" transform="rotate(-90 90, 1460)" text-anchor="middle">1822</text><circle cx="150" cy="1460" r="2.5" stroke="goldenrod" fill="gold" stroke-width="4"/><text x="20" y="1460" text-anchor="middle">5 Letter(s)</text></g><g><line x1="100" y1="1825" x2="150" y2="1825" stroke="black" stroke-width="3"/><text x="90" y="1825" transform="rotate(-90 90, 1825)" text-anchor="middle">1823</text><circle cx="150" cy="1825" r="2" stroke="goldenrod" fill="gold" stroke-width="4"/><text x="20" y="1825" text-anchor="middle">4 Letter(s)</text></g><g><line x1="100" y1="2190" x2="150" y2="2190" stroke="black" stroke-width="3"/><text x="90" y="2190" transform="rotate(-90 90, 2190)" text-anchor="middle">1824</text><circle cx="150" cy="2190" r="0.5" stroke="goldenrod" fill="gold" stroke-width="4"/><text x="20" y="2190" text-anchor="middle">1 Letter(s)</text></g><g><line x1="100" y1="2555" x2="150" y2="2555" stroke="black" stroke-width="3"/><text x="90" y="2555" transform="rotate(-90 90, 2555)" text-anchor="middle">1825</text><circle cx="150" cy="2555" r="2" stroke="goldenrod" fill="gold" stroke-width="4"/><text x="20" y="2555" text-anchor="middle">4 Letter(s)</text></g></g></svg>