<svg xmlns="http://www.w3.org/2000/svg">
    <g transform="translate(300,500)">
        <line x1="20"  y1="0"  x2="700"  y2="0"  stroke="black"  stroke-width="1"/>
        <line x1="20"  y1="0"  x2="20"  y2="-400"  stroke="black"  stroke-width="1"/>
        <line x1="20"  y1="-200"  x2="700"  y2="-200"  style=" stroke: black; stroke-dasharray: 10 10; stroke-width: 3; "/>
        <line x1="20"  y1="-400"  x2="700"  y2="-400"  style=" stroke: black; stroke-dasharray: 10 10;
            stroke-width: 3; "/>
        <text x="0"  y="-200"  text-anchor="middle">25%</text>
        <text x="0"  y="-400"  text-anchor="middle">50%</text>
        <text x="50"  y="25"  text-anchor="middle">All People</text>
        <text x="50"  y="40"  text-anchor="middle">(13)</text>
        <text x="200"  y="25"  text-anchor="middle">Writers</text>
        <text x="200"  y="40"  text-anchor="middle">(6)</text>
        <text x="350"  y="25"  text-anchor="middle">Painters</text>
        <text x="350"  y="40"  text-anchor="middle">(1)</text>
        <text x="500"  y="25"  text-anchor="middle">Directors</text>
        <text x="500"  y="40"  text-anchor="middle">(1)</text>
        <text x="650"  y="25"  text-anchor="middle">Actresses</text>
        <text x="650"  y="40"  text-anchor="middle">(1)</text>
        <text x="-150"  y="-200"  text-anchor="middle">Percentage of References</text>
        <text x="200"  y="80"  text-anchor="middle">People of Reference</text>
        <line x1="50"  y1="0"  x2="50"  y2="-297.1428571428571432"  stroke="blue"  stroke-width="25"/>
        <line x1="200"  y1="0"  x2="200"  y2="-137.1428571428571432"  stroke="red"  stroke-width="25"/>
        <line x1="350"  y1="0"  x2="350"  y2="-22.8571428571428568"  stroke="green"  stroke-width="25"/>
        <line x1="500"  y1="0"  x2="500"  y2="-22.8571428571428568"  stroke="orange"  stroke-width="25"/>
        <line x1="650"  y1="0"  x2="650"  y2="-22.8571428571428568"  stroke="purple"  stroke-width="25"/>
    </g>
</svg>

