<?xml version="1.0" encoding="UTF-8"?>
<svg xmlns="http://www.w3.org/2000/svg" width="1500" height="1500" viewBox="0,0,2000,2000"><g transform="translate(100, 500)"><text x="0" y="-470">Brush Creek Cemetery Section I: Count of the dead: 142</text><text x="0" y="-450">Count of the dead with surnames: 152</text><text x="0" y="-430">Count of distinct surnames: 56</text><text x="0" y="-410">Which distinct regions are represented where the family deathcount is greater than 3?</text><text x="0" y="-390">There are 7: Pennsylvania, Florida, California, West Virginia, Ontario, Ohio, Colorado</text><g id="legend"><rect x="600" y="-490" height="300" width="200" style="stroke:black; stroke-width: 2; fill: none"/><text x="630" y="-460">Legend:</text><g><text x="635" y="-430">Pennsylvania</text><rect x="730" y="-445" height="20" width="20" style="stroke: black; stroke-width: 1; fill: blue"/></g><g><text x="635" y="-400">Florida</text><rect x="730" y="-415" height="20" width="20" style="stroke: black; stroke-width: 1; fill: orange"/></g><g><text x="635" y="-370">California</text><rect x="730" y="-385" height="20" width="20" style="stroke: black; stroke-width: 1; fill: yellow"/></g><g><text x="635" y="-340">West Virginia</text><rect x="730" y="-355" height="20" width="20" style="stroke: black; stroke-width: 1; fill: green"/></g><g><text x="635" y="-310">Ontario</text><rect x="730" y="-325" height="20" width="20" style="stroke: black; stroke-width: 1; fill: red"/></g><g><text x="635" y="-280">Ohio</text><rect x="730" y="-295" height="20" width="20" style="stroke: black; stroke-width: 1; fill: purple"/></g><g><text x="635" y="-250">Colorado</text><rect x="730" y="-265" height="20" width="20" style="stroke: black; stroke-width: 1; fill: pink"/></g><g><text x="635" y="-220">Unmarked</text><rect x="730" y="-235" height="20" width="20" style="stroke: black; stroke-width: 1; fill: none"/></g></g><g id="graph"><line x1="0" y1="0" x2="600" y2="0" style="stroke: black; stroke-width: 2"/><text x="10" y="-290" style="text-anchor: start">Geographic Distribution of Families with more than 3 deaths in Brush Creek Section I</text><line x1="0" y1="0" x2="0" y2="-240" style="stroke: black; stroke-width: 2"/><text x="-30" y="-120" style="text-anchor: middle; writing-mode: tb; glyph-orientation-vertical: 0;">Number of Deaths</text><line x1="-5" x2="5" y1="-240" y2="-240" style="stroke: black; stroke-width: 1"/><text x="-10" y="-240" style="text-anchor: end">12</text><line x1="-5" x2="5" y1="-120" y2="-120" style="stroke: black; stroke-width: 1"/><text x="-10" y="-120" style="text-anchor: end">6</text><g id="Helman"><text x="75" y="5" style="text-anchor: end" transform="rotate(-45,75,30)">Helman</text><text x="50" y="-255">12</text><rect x="50" y="-240" width="20" height="240" style="stroke: black; stroke-width:1; fill:none;"/><g class="regions"><g><rect class="Pennsylvania_5" x="50" y="-100" width="20" height="100" style="stroke: black; stroke-width:1; fill: blue"/></g><g><rect class="West Virginia_3" x="50" y="-160" width="20" height="60" style="stroke: black; stroke-width:1; fill: green"/></g><g><rect class="California_1" x="50" y="-180" width="20" height="20" style="stroke: black; stroke-width:1; fill: yellow"/></g><g><rect class="Ontario_1" x="50" y="-200" width="20" height="20" style="stroke: black; stroke-width:1; fill: red"/></g><g><rect class="Ohio_1" x="50" y="-220" width="20" height="20" style="stroke: black; stroke-width:1; fill: purple"/></g></g></g><g id="Gongaware"><text x="125" y="5" style="text-anchor: end" transform="rotate(-45,125,30)">Gongaware</text><text x="100" y="-235">11</text><rect x="100" y="-220" width="20" height="220" style="stroke: black; stroke-width:1; fill:none;"/><g class="regions"><g><rect class="Pennsylvania_7" x="100" y="-140" width="20" height="140" style="stroke: black; stroke-width:1; fill: blue"/></g></g></g><g id="Brezler"><text x="175" y="5" style="text-anchor: end" transform="rotate(-45,175,30)">Brezler</text><text x="150" y="-135">6</text><rect x="150" y="-120" width="20" height="120" style="stroke: black; stroke-width:1; fill:none;"/><g class="regions"><g><rect class="Pennsylvania_5" x="150" y="-100" width="20" height="100" style="stroke: black; stroke-width:1; fill: blue"/></g><g><rect class="Colorado_1" x="150" y="-120" width="20" height="20" style="stroke: black; stroke-width:1; fill: pink"/></g></g></g><g id="McCaulley"><text x="225" y="5" style="text-anchor: end" transform="rotate(-45,225,30)">McCaulley</text><text x="200" y="-135">6</text><rect x="200" y="-120" width="20" height="120" style="stroke: black; stroke-width:1; fill:none;"/><g class="regions"><g><rect class="Pennsylvania_6" x="200" y="-120" width="20" height="120" style="stroke: black; stroke-width:1; fill: blue"/></g></g></g><g id="McCune"><text x="275" y="5" style="text-anchor: end" transform="rotate(-45,275,30)">McCune</text><text x="250" y="-115">5</text><rect x="250" y="-100" width="20" height="100" style="stroke: black; stroke-width:1; fill:none;"/><g class="regions"><g><rect class="Pennsylvania_5" x="250" y="-100" width="20" height="100" style="stroke: black; stroke-width:1; fill: blue"/></g></g></g><g id="Woodruff"><text x="325" y="5" style="text-anchor: end" transform="rotate(-45,325,30)">Woodruff</text><text x="300" y="-115">5</text><rect x="300" y="-100" width="20" height="100" style="stroke: black; stroke-width:1; fill:none;"/><g class="regions"><g><rect class="Pennsylvania_5" x="300" y="-100" width="20" height="100" style="stroke: black; stroke-width:1; fill: blue"/></g></g></g><g id="Lauffer"><text x="375" y="5" style="text-anchor: end" transform="rotate(-45,375,30)">Lauffer</text><text x="350" y="-115">5</text><rect x="350" y="-100" width="20" height="100" style="stroke: black; stroke-width:1; fill:none;"/><g class="regions"><g><rect class="Pennsylvania_5" x="350" y="-100" width="20" height="100" style="stroke: black; stroke-width:1; fill: blue"/></g></g></g><g id="King"><text x="425" y="5" style="text-anchor: end" transform="rotate(-45,425,30)">King</text><text x="400" y="-95">4</text><rect x="400" y="-80" width="20" height="80" style="stroke: black; stroke-width:1; fill:none;"/><g class="regions"><g><rect class="Pennsylvania_3" x="400" y="-60" width="20" height="60" style="stroke: black; stroke-width:1; fill: blue"/></g><g><rect class="Florida_1" x="400" y="-80" width="20" height="20" style="stroke: black; stroke-width:1; fill: orange"/></g></g></g><g id="Bostwick"><text x="475" y="5" style="text-anchor: end" transform="rotate(-45,475,30)">Bostwick</text><text x="450" y="-95">4</text><rect x="450" y="-80" width="20" height="80" style="stroke: black; stroke-width:1; fill:none;"/><g class="regions"><g><rect class="Pennsylvania_4" x="450" y="-80" width="20" height="80" style="stroke: black; stroke-width:1; fill: blue"/></g></g></g><g id="Vogel"><text x="525" y="5" style="text-anchor: end" transform="rotate(-45,525,30)">Vogel</text><text x="500" y="-95">4</text><rect x="500" y="-80" width="20" height="80" style="stroke: black; stroke-width:1; fill:none;"/><g class="regions"><g><rect class="Pennsylvania_4" x="500" y="-80" width="20" height="80" style="stroke: black; stroke-width:1; fill: blue"/></g></g></g><g id="Walthour"><text x="575" y="5" style="text-anchor: end" transform="rotate(-45,575,30)">Walthour</text><text x="550" y="-95">4</text><rect x="550" y="-80" width="20" height="80" style="stroke: black; stroke-width:1; fill:none;"/><g class="regions"><g><rect class="Pennsylvania_3" x="550" y="-60" width="20" height="60" style="stroke: black; stroke-width:1; fill: blue"/></g></g></g></g></g></svg>