<?xml version="1.0" encoding="UTF-8"?>
<svg xmlns="http://www.w3.org/2000/svg" width="500" height="2700"><g transform="translate(30, 100)"><line x1="100" y1="0" x2="100" y2="2555" stroke="maroon" stroke-width="5"/><g><line x1="50" y1="0" x2="115" y2="0" stroke="black" stroke-width="3"/><text x="35" y="-25" fill="maroon" style="font-size:20;">1</text><text x="120" y="5">1818</text><circle cx="50" cy="0" r="1" fill="black"/><line x1="200" y1="409" x2="200" y2="2099" stroke="maroon" stroke-width="3" stroke-dasharray="5,5"/><text x="190" y="399" style="font-size:30;">Haydon Letters</text><text x="210" y="424" style="font-size:20;">1819 - 1823</text><rect x="100" y="409" width="100" height="1689" style="fill:maroon;fill-opacity:0.05;"/><!-- ebb: Nice work setting a fill-opacity! Another way to control this is by the sequence of the elements you set. By default, SVG plots elements over top of the previous elements if they're in the same coordinate space. So you *could* control this without opacity by putting the text elements after the rect element in your for-loop. --></g><g><line x1="50" y1="365" x2="115" y2="365" stroke="black" stroke-width="3"/><text x="35" y="340" fill="maroon" style="font-size:20;">20</text><text x="120" y="370">1819</text><circle cx="50" cy="365" r="20" fill="black"/><line x1="200" y1="409" x2="200" y2="2099" stroke="maroon" stroke-width="3" stroke-dasharray="5,5"/><text x="190" y="399" style="font-size:30;">Haydon Letters</text><text x="210" y="424" style="font-size:20;">1819 - 1823</text><rect x="100" y="409" width="100" height="1689" style="fill:maroon;fill-opacity:0.05;"/><!-- ebb: Nice work setting a fill-opacity! Another way to control this is by the sequence of the elements you set. By default, SVG plots elements over top of the previous elements if they're in the same coordinate space. So you *could* control this without opacity by putting the text elements after the rect element in your for-loop. --></g><g><line x1="50" y1="730" x2="115" y2="730" stroke="black" stroke-width="3"/><text x="35" y="705" fill="maroon" style="font-size:20;">10</text><text x="120" y="735">1820</text><circle cx="50" cy="730" r="10" fill="black"/><line x1="200" y1="409" x2="200" y2="2099" stroke="maroon" stroke-width="3" stroke-dasharray="5,5"/><text x="190" y="399" style="font-size:30;">Haydon Letters</text><text x="210" y="424" style="font-size:20;">1819 - 1823</text><rect x="100" y="409" width="100" height="1689" style="fill:maroon;fill-opacity:0.05;"/><!-- ebb: Nice work setting a fill-opacity! Another way to control this is by the sequence of the elements you set. By default, SVG plots elements over top of the previous elements if they're in the same coordinate space. So you *could* control this without opacity by putting the text elements after the rect element in your for-loop. --></g><g><line x1="50" y1="1095" x2="115" y2="1095" stroke="black" stroke-width="3"/><text x="35" y="1070" fill="maroon" style="font-size:20;">16</text><text x="120" y="1100">1821</text><circle cx="50" cy="1095" r="16" fill="black"/><line x1="200" y1="409" x2="200" y2="2099" stroke="maroon" stroke-width="3" stroke-dasharray="5,5"/><text x="190" y="399" style="font-size:30;">Haydon Letters</text><text x="210" y="424" style="font-size:20;">1819 - 1823</text><rect x="100" y="409" width="100" height="1689" style="fill:maroon;fill-opacity:0.05;"/><!-- ebb: Nice work setting a fill-opacity! Another way to control this is by the sequence of the elements you set. By default, SVG plots elements over top of the previous elements if they're in the same coordinate space. So you *could* control this without opacity by putting the text elements after the rect element in your for-loop. --></g><g><line x1="50" y1="1460" x2="115" y2="1460" stroke="black" stroke-width="3"/><text x="35" y="1435" fill="maroon" style="font-size:20;">5</text><text x="120" y="1465">1822</text><circle cx="50" cy="1460" r="5" fill="black"/><line x1="200" y1="409" x2="200" y2="2099" stroke="maroon" stroke-width="3" stroke-dasharray="5,5"/><text x="190" y="399" style="font-size:30;">Haydon Letters</text><text x="210" y="424" style="font-size:20;">1819 - 1823</text><rect x="100" y="409" width="100" height="1689" style="fill:maroon;fill-opacity:0.05;"/><!-- ebb: Nice work setting a fill-opacity! Another way to control this is by the sequence of the elements you set. By default, SVG plots elements over top of the previous elements if they're in the same coordinate space. So you *could* control this without opacity by putting the text elements after the rect element in your for-loop. --></g><g><line x1="50" y1="1825" x2="115" y2="1825" stroke="black" stroke-width="3"/><text x="35" y="1800" fill="maroon" style="font-size:20;">9</text><text x="120" y="1830">1823</text><circle cx="50" cy="1825" r="9" fill="black"/><line x1="200" y1="409" x2="200" y2="2099" stroke="maroon" stroke-width="3" stroke-dasharray="5,5"/><text x="190" y="399" style="font-size:30;">Haydon Letters</text><text x="210" y="424" style="font-size:20;">1819 - 1823</text><rect x="100" y="409" width="100" height="1689" style="fill:maroon;fill-opacity:0.05;"/><!-- ebb: Nice work setting a fill-opacity! Another way to control this is by the sequence of the elements you set. By default, SVG plots elements over top of the previous elements if they're in the same coordinate space. So you *could* control this without opacity by putting the text elements after the rect element in your for-loop. --></g><g><line x1="50" y1="2190" x2="115" y2="2190" stroke="black" stroke-width="3"/><text x="35" y="2165" fill="maroon" style="font-size:20;">1</text><text x="120" y="2195">1824</text><circle cx="50" cy="2190" r="1" fill="black"/><line x1="200" y1="409" x2="200" y2="2099" stroke="maroon" stroke-width="3" stroke-dasharray="5,5"/><text x="190" y="399" style="font-size:30;">Haydon Letters</text><text x="210" y="424" style="font-size:20;">1819 - 1823</text><rect x="100" y="409" width="100" height="1689" style="fill:maroon;fill-opacity:0.05;"/><!-- ebb: Nice work setting a fill-opacity! Another way to control this is by the sequence of the elements you set. By default, SVG plots elements over top of the previous elements if they're in the same coordinate space. So you *could* control this without opacity by putting the text elements after the rect element in your for-loop. --></g><g><line x1="50" y1="2555" x2="115" y2="2555" stroke="black" stroke-width="3"/><text x="35" y="2530" fill="maroon" style="font-size:20;">4</text><text x="120" y="2560">1825</text><circle cx="50" cy="2555" r="4" fill="black"/><line x1="200" y1="409" x2="200" y2="2099" stroke="maroon" stroke-width="3" stroke-dasharray="5,5"/><text x="190" y="399" style="font-size:30;">Haydon Letters</text><text x="210" y="424" style="font-size:20;">1819 - 1823</text><rect x="100" y="409" width="100" height="1689" style="fill:maroon;fill-opacity:0.05;"/><!-- ebb: Nice work setting a fill-opacity! Another way to control this is by the sequence of the elements you set. By default, SVG plots elements over top of the previous elements if they're in the same coordinate space. So you *could* control this without opacity by putting the text elements after the rect element in your for-loop. --></g></g></svg>