<?xml version="1.0" encoding="UTF-8"?>
<svg width="2000" height="3000"><g transform="translate(30,30)"><line x1="0" y1="0" x2="0" y2="1900" style="stroke:blue;stroke-width:2;"/><g><circle cx="0" cy="0" r="2" stroke="green" stroke-width="3" fill="red"/><text x="0" y="0" fill="red">"false"</text><rect width="300" height="100" style="fill:rgb(0,0,255);stroke-width:3;stroke:rgb(0,0,0)"/></g><g><circle cx="0" cy="100" r="2" stroke="green" stroke-width="3" fill="red"/><text x="0" y="100" fill="red">"false"</text><rect width="300" height="100" style="fill:rgb(0,0,255);stroke-width:3;stroke:rgb(0,0,0)"/></g><g><circle cx="0" cy="200" r="2" stroke="green" stroke-width="3" fill="red"/><text x="0" y="200" fill="red">"false"</text><rect width="300" height="100" style="fill:rgb(0,0,255);stroke-width:3;stroke:rgb(0,0,0)"/></g><g><circle cx="0" cy="300" r="2" stroke="green" stroke-width="3" fill="red"/><text x="0" y="300" fill="red">"false"</text><rect width="300" height="100" style="fill:rgb(0,0,255);stroke-width:3;stroke:rgb(0,0,0)"/></g><g><circle cx="0" cy="400" r="2" stroke="green" stroke-width="3" fill="red"/><text x="0" y="400" fill="red">"false"</text><rect width="300" height="100" style="fill:rgb(0,0,255);stroke-width:3;stroke:rgb(0,0,0)"/></g><g><circle cx="0" cy="500" r="2" stroke="green" stroke-width="3" fill="red"/><text x="0" y="500" fill="red">"false"</text><rect width="300" height="100" style="fill:rgb(0,0,255);stroke-width:3;stroke:rgb(0,0,0)"/></g><g><circle cx="0" cy="600" r="2" stroke="green" stroke-width="3" fill="red"/><text x="0" y="600" fill="red">"false"</text><rect width="300" height="100" style="fill:rgb(0,0,255);stroke-width:3;stroke:rgb(0,0,0)"/></g><g><circle cx="0" cy="700" r="2" stroke="green" stroke-width="3" fill="red"/><text x="0" y="700" fill="red">"false"</text><rect width="300" height="100" style="fill:rgb(0,0,255);stroke-width:3;stroke:rgb(0,0,0)"/></g><g><circle cx="0" cy="800" r="2" stroke="green" stroke-width="3" fill="red"/><text x="0" y="800" fill="red">"false"</text><rect width="300" height="100" style="fill:rgb(0,0,255);stroke-width:3;stroke:rgb(0,0,0)"/></g><g><circle cx="0" cy="900" r="2" stroke="green" stroke-width="3" fill="red"/><text x="0" y="900" fill="red">"false"</text><rect width="300" height="100" style="fill:rgb(0,0,255);stroke-width:3;stroke:rgb(0,0,0)"/></g><g><circle cx="0" cy="1000" r="2" stroke="green" stroke-width="3" fill="red"/><text x="0" y="1000" fill="red">"false"</text><rect width="300" height="100" style="fill:rgb(0,0,255);stroke-width:3;stroke:rgb(0,0,0)"/></g><g><circle cx="0" cy="1100" r="2" stroke="green" stroke-width="3" fill="red"/><text x="0" y="1100" fill="red">"false"</text><rect width="300" height="100" style="fill:rgb(0,0,255);stroke-width:3;stroke:rgb(0,0,0)"/></g><g><circle cx="0" cy="1200" r="2" stroke="green" stroke-width="3" fill="red"/><text x="0" y="1200" fill="red">"false"</text><rect width="300" height="100" style="fill:rgb(0,0,255);stroke-width:3;stroke:rgb(0,0,0)"/></g><g><circle cx="0" cy="1300" r="2" stroke="green" stroke-width="3" fill="red"/><text x="0" y="1300" fill="red">"false"</text><rect width="300" height="100" style="fill:rgb(0,0,255);stroke-width:3;stroke:rgb(0,0,0)"/></g><g><circle cx="0" cy="1400" r="2" stroke="green" stroke-width="3" fill="red"/><text x="0" y="1400" fill="red">"false"</text><rect width="300" height="100" style="fill:rgb(0,0,255);stroke-width:3;stroke:rgb(0,0,0)"/></g><g><circle cx="0" cy="1500" r="2" stroke="green" stroke-width="3" fill="red"/><text x="0" y="1500" fill="red">"false"</text><rect width="300" height="100" style="fill:rgb(0,0,255);stroke-width:3;stroke:rgb(0,0,0)"/></g><g><circle cx="0" cy="1600" r="2" stroke="green" stroke-width="3" fill="red"/><text x="0" y="1600" fill="red">"false"</text><rect width="300" height="100" style="fill:rgb(0,0,255);stroke-width:3;stroke:rgb(0,0,0)"/></g><g><circle cx="0" cy="1700" r="2" stroke="green" stroke-width="3" fill="red"/><text x="0" y="1700" fill="red">"false"</text><rect width="300" height="100" style="fill:rgb(0,0,255);stroke-width:3;stroke:rgb(0,0,0)"/></g><g><circle cx="0" cy="1800" r="2" stroke="green" stroke-width="3" fill="red"/><text x="0" y="1800" fill="red">"false"</text><rect width="300" height="100" style="fill:rgb(0,0,255);stroke-width:3;stroke:rgb(0,0,0)"/></g><g><circle cx="0" cy="1900" r="2" stroke="green" stroke-width="3" fill="red"/><text x="0" y="1900" fill="red">"false"</text><rect width="300" height="100" style="fill:rgb(0,0,255);stroke-width:3;stroke:rgb(0,0,0)"/></g></g></svg>