<?xml version="1.0" encoding="UTF-8"?>
<svg xmlns="http://www.w3.org/2000/svg" width="500" height="3000"><g transform="translate(30, 100)"><line x1="200" y1="0" x2="200" y2="2555" style="stroke:orange;stroke-width:20"/><line x1="300" y1="409" x2="300" y2="2099" style="stroke:green;stroke-width:20"/><text x="310" y="409">First letter: 1819-02-13</text><text x="310" y="2099">Last letter: 1823-10-01</text><text x="350" y="710" transform="rotate(90, 350, 710)">Haydon Correspondence
</text><g><line x1="100" y1="0" x2="200" y2="0" style="stroke:black;stroke-width:2;"/><circle cx="200" cy="0" r="1" style="fill:white;stroke:black;"/><text x="100" y="0">1818</text><text x="80" y="30">Letters coded:1</text></g><g><line x1="100" y1="365" x2="200" y2="365" style="stroke:black;stroke-width:2;"/><circle cx="200" cy="365" r="18" style="fill:white;stroke:black;"/><text x="100" y="365">1819</text><text x="80" y="395">Letters coded:18</text></g><g><line x1="100" y1="730" x2="200" y2="730" style="stroke:black;stroke-width:2;"/><circle cx="200" cy="730" r="10" style="fill:white;stroke:black;"/><text x="100" y="730">1820</text><text x="80" y="760">Letters coded:10</text></g><g><line x1="100" y1="1095" x2="200" y2="1095" style="stroke:black;stroke-width:2;"/><circle cx="200" cy="1095" r="17" style="fill:white;stroke:black;"/><text x="100" y="1095">1821</text><text x="80" y="1125">Letters coded:17</text></g><g><line x1="100" y1="1460" x2="200" y2="1460" style="stroke:black;stroke-width:2;"/><circle cx="200" cy="1460" r="5" style="fill:white;stroke:black;"/><text x="100" y="1460">1822</text><text x="80" y="1490">Letters coded:5</text></g><g><line x1="100" y1="1825" x2="200" y2="1825" style="stroke:black;stroke-width:2;"/><circle cx="200" cy="1825" r="4" style="fill:white;stroke:black;"/><text x="100" y="1825">1823</text><text x="80" y="1855">Letters coded:4</text></g><g><line x1="100" y1="2190" x2="200" y2="2190" style="stroke:black;stroke-width:2;"/><circle cx="200" cy="2190" r="1" style="fill:white;stroke:black;"/><text x="100" y="2190">1824</text><text x="80" y="2220">Letters coded:1</text></g><g><line x1="100" y1="2555" x2="200" y2="2555" style="stroke:black;stroke-width:2;"/><circle cx="200" cy="2555" r="4" style="fill:white;stroke:black;"/><text x="100" y="2555">1825</text><text x="80" y="2585">Letters coded:4</text></g></g></svg>