<?xml version="1.0" encoding="utf-8"?><!DOCTYPE svg
  SYSTEM "http://www.w3.org/TR/2001/REC-SVG-20010904/DTD/svg10.dtd">
<svg xmlns="http://www.w3.org/2000/svg" width="100%" height="100%">
   <desc></desc>
   <g transform="translate(50,550)">
      <text x="40" y="-500" style="font-family:sans-serif;font-size:25px" fill="black" font-stretch="expanded">Sentence Quality Ratios</text>
      <text x="40" y="-470" style="font-family:sans-serif;font-size:15px" fill="black" font-stretch="expanded">Green = Good Structure</text>
      <text x="40" y="-450" style="font-family:sans-serif;font-size:15px" fill="black" font-stretch="expanded">Red = Poor Structure</text>
      <line x1="20" y1="0" x2="500" y2="0" color="black" stroke="black" stroke-width="2"></line>
      <line x1="20" y1="0" x2="20" y2="-525" color="black" stroke="black" stroke-width="2"></line>
      <text x="5" y="0" text-anchor="middle">0</text>
      <text x="5" y="-50" text-anchor="middle">10</text>
      <text x="5" y="-100" text-anchor="middle">20</text>
      <text x="5" y="-150" text-anchor="middle">30</text>
      <text x="5" y="-200" text-anchor="middle">40</text>
      <text x="5" y="-250" text-anchor="middle">50</text>
      <text x="5" y="-300" text-anchor="middle">60</text>
      <text x="5" y="-350" text-anchor="middle">70</text>
      <text x="5" y="-400" text-anchor="middle">80</text>
      <text x="5" y="-450" text-anchor="middle">90</text>
      <text x="5" y="-500" text-anchor="middle">100</text>
      <text x="80" y="-365.263157894736842" text-anchor="middle">71%</text>
      <text x="130" y="-154.736842105263158" text-anchor="middle">29%</text>
      <text x="230" y="-265.5555555555555555" text-anchor="middle">51%</text>
      <text x="280" y="-254.4444444444444445" text-anchor="middle">49%</text>
      <text x="380" y="-455" text-anchor="middle">89%</text>
      <text x="430" y="-65" text-anchor="middle">11%</text>
      <text x="100" y="20" text-anchor="middle">Overall</text>
      <text x="250" y="20" text-anchor="middle">Youtube</text>
      <text x="400" y="20" text-anchor="middle">NBC</text>
      <rect x="50" y="-355.263157894736842" fill="green" stroke="black" stroke-width="2" width="50" height="355.263157894736842"></rect>
      <rect x="100" y="-144.736842105263158" fill="red" stroke="black" stroke-width="2" width="50" height="144.736842105263158"></rect>
      <rect x="200" y="-255.5555555555555555" fill="green" stroke="black" stroke-width="2" width="50" height="255.5555555555555555"></rect>
      <rect x="250" y="-244.4444444444444445" fill="red" stroke="black" stroke-width="2" width="50" height="244.4444444444444445"></rect>
      <rect x="350" y="-445" fill="green" stroke="black" stroke-width="2" width="50" height="445"></rect>
      <rect x="400" y="-55" fill="red" stroke="black" stroke-width="2" width="50" height="55"></rect>
   </g>
</svg>