<?xml version="1.0" encoding="utf-8"?><!DOCTYPE svg
  SYSTEM "http://www.w3.org/TR/2001/REC-SVG-20010904/DTD/svg10.dtd">
<svg xmlns="http://www.w3.org/2000/svg" width="100%" height="100%">
   <desc></desc>
   <g transform="translate(50,550)">
      <text x="40" y="-500" style="font-family:sans-serif;font-size:25px" fill="black" font-stretch="expanded">Comment Tone Percentages (NBC)</text>
      <text x="40" y="-460" style="font-family:sans-serif;font-size:10px" fill="black" font-stretch="expanded">Number of Obscenities used: 7</text>
      <text x="40" y="-450" style="font-family:sans-serif;font-size:10px" fill="black" font-stretch="expanded">Number of Emotes used: 0</text>
      <text x="40" y="-440" style="font-family:sans-serif;font-size:10px" fill="black" font-stretch="expanded">Number of Acronyms used: 8</text>
      <text x="40" y="-430" style="font-family:sans-serif;font-size:10px" fill="black" font-stretch="expanded">Number of Times Excessive Punctuation used: 27</text>
      <text x="40" y="-420" style="font-family:sans-serif;font-size:10px" fill="black" font-stretch="expanded">Number of Times All Caps used: 17</text>
      <line x1="20" y1="0" x2="500" y2="0" color="black" stroke="black" stroke-width="2"></line>
      <line x1="20" y1="0" x2="20" y2="-525" color="black" stroke="black" stroke-width="2"></line>
      <text x="5" y="0" text-anchor="middle">0</text>
      <text x="5" y="-50" text-anchor="middle">10</text>
      <text x="5" y="-100" text-anchor="middle">20</text>
      <text x="5" y="-150" text-anchor="middle">30</text>
      <text x="5" y="-200" text-anchor="middle">40</text>
      <text x="5" y="-250" text-anchor="middle">50</text>
      <text x="5" y="-300" text-anchor="middle">60</text>
      <text x="5" y="-350" text-anchor="middle">70</text>
      <text x="5" y="-400" text-anchor="middle">80</text>
      <text x="5" y="-450" text-anchor="middle">90</text>
      <text x="5" y="-500" text-anchor="middle">100</text>
      <text x="100" y="-95" text-anchor="middle">17%</text>
      <text x="250" y="-370" text-anchor="middle">72%</text>
      <text x="400" y="-65" text-anchor="middle">11%</text>
      <text x="100" y="20" text-anchor="middle">Positive</text>
      <text x="250" y="20" text-anchor="middle">Negative</text>
      <text x="400" y="20" text-anchor="middle">Neutral</text>
      <rect x="50" y="-85" fill="green" stroke="black" stroke-width="2" width="100" height="85"></rect>
      <rect x="200" y="-360" fill="red" stroke="black" stroke-width="2" width="100" height="360"></rect>
      <rect x="350" y="-55" fill="blue" stroke="black" stroke-width="2" width="100" height="55"></rect>
   </g>
</svg>