<?xml version="1.0" encoding="UTF-8"?>
<!DOCTYPE svg PUBLIC "-//W3C//DTD SVG 1.1//EN" "http://www.w3.org/Graphics/SVG/1.1/DTD/svg11.dtd">
<svg xmlns="http://www.w3.org/2000/svg" width="100%" height="100%">
    <desc>SVG Homework 1</desc>
    <g alignment-baseline="baseline">
        <svg height="1200" width="1200">
            <g class="chart-container">
                <g class="background">
                    <rect x="100" y="160" width="900" height="440" style="fill:#b5e7a0;fill-opacity:0.7"/>
                </g>
                <g class="chart-lines">
                    <line x1="100" y1="160" x2="100" y2="600" style="stroke:#674d3c;stroke-width:4"/>
                    <line x1="100" y1="598" x2="1000" y2="598" style="stroke:#674d3c;stroke-width:4"/>
                    <line x1="200" y1="588" x2="200" y2="608" style="stroke:#674d3c;stroke-width:4"/>
                    <line x1="300" y1="588" x2="300" y2="608" style="stroke:#674d3c;stroke-width:4"/>
                    <line x1="400" y1="588" x2="400" y2="608" style="stroke:#674d3c;stroke-width:4"/>
                    <line x1="500" y1="588" x2="500" y2="608" style="stroke:#674d3c;stroke-width:4"/>
                    <line x1="600" y1="588" x2="600" y2="608" style="stroke:#674d3c;stroke-width:4"/>
                    <line x1="700" y1="588" x2="700" y2="608" style="stroke:#674d3c;stroke-width:4"/>
                    <line x1="800" y1="588" x2="800" y2="608" style="stroke:#674d3c;stroke-width:4"/>
                    <line x1="900" y1="588" x2="900" y2="608" style="stroke:#674d3c;stroke-width:4"/>
                    <line x1="1000" y1="588" x2="1000" y2="608" style="stroke:#674d3c;stroke-width:4"/>
                </g>
                <g class="chart-text">
                    <g class="x-axis-text">
                        <text x="192" y="625" fill="#674d3c">50</text>
                        <text x="288" y="625" fill="#674d3c">100</text>
                        <text x="388" y="625" fill="#674d3c">150</text>
                        <text x="488" y="625" fill="#674d3c">200</text>
                        <text x="588" y="625" fill="#674d3c">250</text>
                        <text x="688" y="625" fill="#674d3c">300</text>
                        <text x="788" y="625" fill="#674d3c">350</text>
                        <text x="888" y="625" fill="#674d3c">400</text>
                        <text x="988" y="625" fill="#674d3c">450</text>
                    </g>
                    <g class="y-axis-text">
                        <text x="65" y="485" fill="#674d3c" transform="rotate(90, 65, 485)" font-size="30">Tahiti</text>
                        <text x="65" y="312" fill="#674d3c" transform="rotate(90, 65, 312)" font-size="30">Tongatapu</text>
                        <text x="65" y="190" fill="#674d3c" transform="rotate(90, 65, 190)" font-size="30">Raiatea</text>
                    </g>
                    <g class="tahiti-text">
                        <text x="920" y="500" fill="#674d3c" font-size="30">4</text>
                        <text x="920" y="530" fill="#674d3c" font-size="30">0</text>
                        <text x="920" y="560" fill="#674d3c" font-size="30">4</text>
                    </g>
                    <g class="raiatea-text">
                        <text x="310" y="358" fill="#674d3c" font-size="30">1</text>
                        <text x="310" y="388" fill="#674d3c" font-size="30">0</text>
                        <text x="310" y="418" fill="#674d3c" font-size="30">0</text>
                    </g>
                    <g class="tongatapu-text">
                        <text x="242" y="230" fill="#674d3c" font-size="30">6</text>
                        <text x="242" y="260" fill="#674d3c" font-size="30">5</text>
                    </g>
                    <g class="title-text">
                        <text x="70" y="120" fill="#674d3c" font-size="40">The Relative Size in Square Miles of Three Pacific Islands</text>
                    </g>
                </g>
                <g class="bar-graph-rectangles">
                    <rect x="100" y="454" rx="20" ry="20" width="810" height="130" style="fill:#96ceb4;stroke:#674d3c;stroke-width:2;"/>
                    <rect x="100" y="312" rx="20" ry="20" width="200" height="130" style="fill:#ffcc5c;stroke:#674d3c;stroke-width:2;"/>
                    <rect x="100" y="170" rx="20" ry="20" width="132" height="130" style="fill:#ff6f69;stroke:#674d3c;stroke-width:2;"/>
                </g>
            </g>
        </svg>
    </g>
</svg>