<?xml version="1.0" encoding="UTF-8"?>
<svg xmlns="http://www.w3.org/2000/svg" width="1000" height="1000" viewBox="0,0,1200,1200"><g transform="translate(100, 500)"><text x="0" y="-450">Count Of Dead- 142</text><text x="0" y="-420">Count Of Distinct Families- 11</text><text x="0" y="-350">For more information on the Graveyard Project, click <a href="http://graveyard.newtfire.org">here</a></text><g><rect x="600" y="-490" height="300" width="200" style="stroke:black; stroke-width: 1; fill: none"/><text x="630" y="-460">Legend:</text><g><text x="635" y="-430">Pennsylvania</text><rect x="730" y="-445" height="20" width="20" style="stroke: black; stroke-width: 1; fill:#E6B0AA"/></g><g><text x="635" y="-400">Florida</text><rect x="730" y="-415" height="20" width="20" style="stroke: black; stroke-width: 1; fill:#D7BDE2"/></g><g><text x="635" y="-370">California</text><rect x="730" y="-385" height="20" width="20" style="stroke: black; stroke-width: 1; fill:#A9CCE3"/></g><g><text x="635" y="-340">West Virginia</text><rect x="730" y="-355" height="20" width="20" style="stroke: black; stroke-width: 1; fill:#A3E4D7"/></g><g><text x="635" y="-310">Ontario</text><rect x="730" y="-325" height="20" width="20" style="stroke: black; stroke-width: 1; fill:#F9E79F"/></g><g><text x="635" y="-280">Ohio</text><rect x="730" y="-295" height="20" width="20" style="stroke: black; stroke-width: 1; fill:#DC7633"/></g><g><text x="635" y="-250">Colorado</text><rect x="730" y="-265" height="20" width="20" style="stroke: black; stroke-width: 1; fill:#808B96"/></g><g><text x="635" y="-220">Unmarked</text><rect x="730" y="-235" height="20" width="20" style="stroke: black;stroke-width: 1;fill: none"/></g></g><g><line x1="0" y1="0" x2="600" y2="0" style="stroke: black; stroke-width: 2"/><text x="0" y="-480">Geographic Distribution of Families with more than 3 deaths in Brush Creek Section I</text><line x1="0" y1="0" x2="0" y2="-240" style="stroke: black; stroke-width: 2"/><text x="-50" y="-170" style="writing-mode: tb; transform: rotate(360deg);">Number of Deaths</text><g><text x="100" y="15" style="text-anchor: end" transform="rotate(-90,75,30)">Helman</text><text x="50" y="-255">12</text><rect x="50" y="-240" width="20" height="240" style="stroke: black; stroke-width:1;fill:none;"/><g><g><rect class="Pennsylvania_5" x="50" y="-100" width="20" height="100" style="stroke:black; stroke-width:1; fill: #E6B0AA"/></g><g><rect class="West Virginia_3" x="50" y="-160" width="20" height="60" style="stroke:black; stroke-width:1; fill: #A3E4D7"/></g><g><rect class="California_1" x="50" y="-180" width="20" height="20" style="stroke:black; stroke-width:1; fill: #A9CCE3"/></g><g><rect class="Ontario_1" x="50" y="-200" width="20" height="20" style="stroke:black; stroke-width:1; fill: #F9E79F"/></g><g><rect class="Ohio_1" x="50" y="-220" width="20" height="20" style="stroke:black; stroke-width:1; fill: #DC7633"/></g></g></g><g><text x="150" y="15" style="text-anchor: end" transform="rotate(-90,125,30)">Gongaware</text><text x="100" y="-235">11</text><rect x="100" y="-220" width="20" height="220" style="stroke: black; stroke-width:1;fill:none;"/><g><g><rect class="Pennsylvania_7" x="100" y="-140" width="20" height="140" style="stroke:black; stroke-width:1; fill: #E6B0AA"/></g></g></g><g><text x="200" y="15" style="text-anchor: end" transform="rotate(-90,175,30)">Brezler</text><text x="150" y="-135">6</text><rect x="150" y="-120" width="20" height="120" style="stroke: black; stroke-width:1;fill:none;"/><g><g><rect class="Pennsylvania_5" x="150" y="-100" width="20" height="100" style="stroke:black; stroke-width:1; fill: #E6B0AA"/></g><g><rect class="Colorado_1" x="150" y="-120" width="20" height="20" style="stroke:black; stroke-width:1; fill: #808B96"/></g></g></g><g><text x="250" y="15" style="text-anchor: end" transform="rotate(-90,225,30)">McCaulley</text><text x="200" y="-135">6</text><rect x="200" y="-120" width="20" height="120" style="stroke: black; stroke-width:1;fill:none;"/><g><g><rect class="Pennsylvania_6" x="200" y="-120" width="20" height="120" style="stroke:black; stroke-width:1; fill: #E6B0AA"/></g></g></g><g><text x="300" y="15" style="text-anchor: end" transform="rotate(-90,275,30)">McCune</text><text x="250" y="-115">5</text><rect x="250" y="-100" width="20" height="100" style="stroke: black; stroke-width:1;fill:none;"/><g><g><rect class="Pennsylvania_5" x="250" y="-100" width="20" height="100" style="stroke:black; stroke-width:1; fill: #E6B0AA"/></g></g></g><g><text x="350" y="15" style="text-anchor: end" transform="rotate(-90,325,30)">Woodruff</text><text x="300" y="-115">5</text><rect x="300" y="-100" width="20" height="100" style="stroke: black; stroke-width:1;fill:none;"/><g><g><rect class="Pennsylvania_5" x="300" y="-100" width="20" height="100" style="stroke:black; stroke-width:1; fill: #E6B0AA"/></g></g></g><g><text x="400" y="15" style="text-anchor: end" transform="rotate(-90,375,30)">Lauffer</text><text x="350" y="-115">5</text><rect x="350" y="-100" width="20" height="100" style="stroke: black; stroke-width:1;fill:none;"/><g><g><rect class="Pennsylvania_5" x="350" y="-100" width="20" height="100" style="stroke:black; stroke-width:1; fill: #E6B0AA"/></g></g></g><g><text x="450" y="15" style="text-anchor: end" transform="rotate(-90,425,30)">King</text><text x="400" y="-95">4</text><rect x="400" y="-80" width="20" height="80" style="stroke: black; stroke-width:1;fill:none;"/><g><g><rect class="Pennsylvania_3" x="400" y="-60" width="20" height="60" style="stroke:black; stroke-width:1; fill: #E6B0AA"/></g><g><rect class="Florida_1" x="400" y="-80" width="20" height="20" style="stroke:black; stroke-width:1; fill: #D7BDE2"/></g></g></g><g><text x="500" y="15" style="text-anchor: end" transform="rotate(-90,475,30)">Bostwick</text><text x="450" y="-95">4</text><rect x="450" y="-80" width="20" height="80" style="stroke: black; stroke-width:1;fill:none;"/><g><g><rect class="Pennsylvania_4" x="450" y="-80" width="20" height="80" style="stroke:black; stroke-width:1; fill: #E6B0AA"/></g></g></g><g><text x="550" y="15" style="text-anchor: end" transform="rotate(-90,525,30)">Vogel</text><text x="500" y="-95">4</text><rect x="500" y="-80" width="20" height="80" style="stroke: black; stroke-width:1;fill:none;"/><g><g><rect class="Pennsylvania_4" x="500" y="-80" width="20" height="80" style="stroke:black; stroke-width:1; fill: #E6B0AA"/></g></g></g><g><text x="600" y="15" style="text-anchor: end" transform="rotate(-90,575,30)">Walthour</text><text x="550" y="-95">4</text><rect x="550" y="-80" width="20" height="80" style="stroke: black; stroke-width:1;fill:none;"/><g><g><rect class="Pennsylvania_3" x="550" y="-60" width="20" height="60" style="stroke:black; stroke-width:1; fill: #E6B0AA"/></g></g></g></g></g></svg>