<?xml version="1.0" encoding="UTF-8"?>
<svg width="400" height="9350" viewBox="0 0 400 9350"><g transform="translate(200, 100)"><line x1="100" y1="0" x2="100" y2="9200" stroke="#5ec049" stroke-width="5"/><g><line x1="50" y1="0" x2="155" y2="0" stroke="#5ec049" stroke-width="3"/><text class="styled" x="45" y="-30" fill="#00b0c7">1</text><text class="styled" x="-160" y="-10" fill="#00b0c7">2001:  A space odyssey</text><text class="styled" x="165" y="5" fill="#00b0c7">1968</text><circle cx="50" cy="0" r="5" stroke="#5ec049" stroke-width="3" fill="#5ec049"/></g><g><line x1="50" y1="200" x2="155" y2="200" stroke="#5ec049" stroke-width="3"/><text class="styled" x="45" y="170" fill="#00b0c7">0</text><text class="styled" x="165" y="205" fill="#00b0c7">1969</text><circle cx="50" cy="200" r="0" stroke="#5ec049" stroke-width="3" fill="#5ec049"/></g><g><line x1="50" y1="400" x2="155" y2="400" stroke="#5ec049" stroke-width="3"/><text class="styled" x="45" y="370" fill="#00b0c7">0</text><text class="styled" x="165" y="405" fill="#00b0c7">1970</text><circle cx="50" cy="400" r="0" stroke="#5ec049" stroke-width="3" fill="#5ec049"/></g><g><line x1="50" y1="600" x2="155" y2="600" stroke="#5ec049" stroke-width="3"/><text class="styled" x="45" y="570" fill="#00b0c7">1</text><text class="styled" x="-160" y="590" fill="#00b0c7">A Clockwork Orange</text><text class="styled" x="165" y="605" fill="#00b0c7">1971</text><circle cx="50" cy="600" r="5" stroke="#5ec049" stroke-width="3" fill="#5ec049"/></g><g><line x1="50" y1="800" x2="155" y2="800" stroke="#5ec049" stroke-width="3"/><text class="styled" x="45" y="770" fill="#00b0c7">0</text><text class="styled" x="165" y="805" fill="#00b0c7">1972</text><circle cx="50" cy="800" r="0" stroke="#5ec049" stroke-width="3" fill="#5ec049"/></g><g><line x1="50" y1="1000" x2="155" y2="1000" stroke="#5ec049" stroke-width="3"/><text class="styled" x="45" y="970" fill="#00b0c7">0</text><text class="styled" x="165" y="1005" fill="#00b0c7">1973</text><circle cx="50" cy="1000" r="0" stroke="#5ec049" stroke-width="3" fill="#5ec049"/></g><g><line x1="50" y1="1200" x2="155" y2="1200" stroke="#5ec049" stroke-width="3"/><text class="styled" x="45" y="1170" fill="#00b0c7">0</text><text class="styled" x="165" y="1205" fill="#00b0c7">1974</text><circle cx="50" cy="1200" r="0" stroke="#5ec049" stroke-width="3" fill="#5ec049"/></g><g><line x1="50" y1="1400" x2="155" y2="1400" stroke="#5ec049" stroke-width="3"/><text class="styled" x="45" y="1370" fill="#00b0c7">0</text><text class="styled" x="165" y="1405" fill="#00b0c7">1975</text><circle cx="50" cy="1400" r="0" stroke="#5ec049" stroke-width="3" fill="#5ec049"/></g><g><line x1="50" y1="1600" x2="155" y2="1600" stroke="#5ec049" stroke-width="3"/><text class="styled" x="45" y="1570" fill="#00b0c7">0</text><text class="styled" x="165" y="1605" fill="#00b0c7">1976</text><circle cx="50" cy="1600" r="0" stroke="#5ec049" stroke-width="3" fill="#5ec049"/></g><g><line x1="50" y1="1800" x2="155" y2="1800" stroke="#5ec049" stroke-width="3"/><text class="styled" x="45" y="1770" fill="#00b0c7">0</text><text class="styled" x="165" y="1805" fill="#00b0c7">1977</text><circle cx="50" cy="1800" r="0" stroke="#5ec049" stroke-width="3" fill="#5ec049"/></g><g><line x1="50" y1="2000" x2="155" y2="2000" stroke="#5ec049" stroke-width="3"/><text class="styled" x="45" y="1970" fill="#00b0c7">2</text><text class="styled" x="-160" y="1990" fill="#00b0c7">Halloween</text><text class="styled" x="-160" y="2010" fill="#00b0c7">Invasion of the Body Snatchers</text><text class="styled" x="165" y="2005" fill="#00b0c7">1978</text><circle cx="50" cy="2000" r="10" stroke="#5ec049" stroke-width="3" fill="#5ec049"/></g><g><line x1="50" y1="2200" x2="155" y2="2200" stroke="#5ec049" stroke-width="3"/><text class="styled" x="45" y="2170" fill="#00b0c7">0</text><text class="styled" x="165" y="2205" fill="#00b0c7">1979</text><circle cx="50" cy="2200" r="0" stroke="#5ec049" stroke-width="3" fill="#5ec049"/></g><g><line x1="50" y1="2400" x2="155" y2="2400" stroke="#5ec049" stroke-width="3"/><text class="styled" x="45" y="2370" fill="#00b0c7">0</text><text class="styled" x="165" y="2405" fill="#00b0c7">1980</text><circle cx="50" cy="2400" r="0" stroke="#5ec049" stroke-width="3" fill="#5ec049"/></g><g><line x1="50" y1="2600" x2="155" y2="2600" stroke="#5ec049" stroke-width="3"/><text class="styled" x="45" y="2570" fill="#00b0c7">0</text><text class="styled" x="165" y="2605" fill="#00b0c7">1981</text><circle cx="50" cy="2600" r="0" stroke="#5ec049" stroke-width="3" fill="#5ec049"/></g><g><line x1="50" y1="2800" x2="155" y2="2800" stroke="#5ec049" stroke-width="3"/><text class="styled" x="45" y="2770" fill="#00b0c7">4</text><text class="styled" x="-160" y="2790" fill="#00b0c7">The Thing</text><text class="styled" x="-160" y="2810" fill="#00b0c7">Blade Runner</text><text class="styled" x="-160" y="2830" fill="#00b0c7">Poltergeist</text><text class="styled" x="-160" y="2850" fill="#00b0c7">E.T. The Extra-Terrestrial</text><text class="styled" x="165" y="2805" fill="#00b0c7">1982</text><circle cx="50" cy="2800" r="20" stroke="#5ec049" stroke-width="3" fill="#5ec049"/></g><g><line x1="50" y1="3000" x2="155" y2="3000" stroke="#5ec049" stroke-width="3"/><text class="styled" x="45" y="2970" fill="#00b0c7">0</text><text class="styled" x="165" y="3005" fill="#00b0c7">1983</text><circle cx="50" cy="3000" r="0" stroke="#5ec049" stroke-width="3" fill="#5ec049"/></g><g><line x1="50" y1="3200" x2="155" y2="3200" stroke="#5ec049" stroke-width="3"/><text class="styled" x="45" y="3170" fill="#00b0c7">2</text><text class="styled" x="-160" y="3190" fill="#00b0c7">Gremlins</text><text class="styled" x="-160" y="3210" fill="#00b0c7">Ghostbusters</text><text class="styled" x="165" y="3205" fill="#00b0c7">1984</text><circle cx="50" cy="3200" r="10" stroke="#5ec049" stroke-width="3" fill="#5ec049"/></g><g><line x1="50" y1="3400" x2="155" y2="3400" stroke="#5ec049" stroke-width="3"/><text class="styled" x="45" y="3370" fill="#00b0c7">1</text><text class="styled" x="-160" y="3390" fill="#00b0c7">The Reanimator</text><text class="styled" x="165" y="3405" fill="#00b0c7">1985</text><circle cx="50" cy="3400" r="5" stroke="#5ec049" stroke-width="3" fill="#5ec049"/></g><g><line x1="50" y1="3600" x2="155" y2="3600" stroke="#5ec049" stroke-width="3"/><text class="styled" x="45" y="3570" fill="#00b0c7">2</text><text class="styled" x="-160" y="3590" fill="#00b0c7">Honey I Shrunk the Kids</text><text class="styled" x="-160" y="3610" fill="#00b0c7">Aliens</text><text class="styled" x="165" y="3605" fill="#00b0c7">1986</text><circle cx="50" cy="3600" r="10" stroke="#5ec049" stroke-width="3" fill="#5ec049"/></g><g><line x1="50" y1="3800" x2="155" y2="3800" stroke="#5ec049" stroke-width="3"/><text class="styled" x="45" y="3770" fill="#00b0c7">0</text><text class="styled" x="165" y="3805" fill="#00b0c7">1987</text><circle cx="50" cy="3800" r="0" stroke="#5ec049" stroke-width="3" fill="#5ec049"/></g><g><line x1="50" y1="4000" x2="155" y2="4000" stroke="#5ec049" stroke-width="3"/><text class="styled" x="45" y="3970" fill="#00b0c7">0</text><text class="styled" x="165" y="4005" fill="#00b0c7">1988</text><circle cx="50" cy="4000" r="0" stroke="#5ec049" stroke-width="3" fill="#5ec049"/></g><g><line x1="50" y1="4200" x2="155" y2="4200" stroke="#5ec049" stroke-width="3"/><text class="styled" x="45" y="4170" fill="#00b0c7">1</text><text class="styled" x="-160" y="4190" fill="#00b0c7">Honey I Shrunk the Kids</text><text class="styled" x="165" y="4205" fill="#00b0c7">1989</text><circle cx="50" cy="4200" r="5" stroke="#5ec049" stroke-width="3" fill="#5ec049"/></g><g><line x1="50" y1="4400" x2="155" y2="4400" stroke="#5ec049" stroke-width="3"/><text class="styled" x="45" y="4370" fill="#00b0c7">0</text><text class="styled" x="165" y="4405" fill="#00b0c7">1990</text><circle cx="50" cy="4400" r="0" stroke="#5ec049" stroke-width="3" fill="#5ec049"/></g><g><line x1="50" y1="4600" x2="155" y2="4600" stroke="#5ec049" stroke-width="3"/><text class="styled" x="45" y="4570" fill="#00b0c7">0</text><text class="styled" x="165" y="4605" fill="#00b0c7">1991</text><circle cx="50" cy="4600" r="0" stroke="#5ec049" stroke-width="3" fill="#5ec049"/></g><g><line x1="50" y1="4800" x2="155" y2="4800" stroke="#5ec049" stroke-width="3"/><text class="styled" x="45" y="4770" fill="#00b0c7">0</text><text class="styled" x="165" y="4805" fill="#00b0c7">1992</text><circle cx="50" cy="4800" r="0" stroke="#5ec049" stroke-width="3" fill="#5ec049"/></g><g><line x1="50" y1="5000" x2="155" y2="5000" stroke="#5ec049" stroke-width="3"/><text class="styled" x="45" y="4970" fill="#00b0c7">0</text><text class="styled" x="165" y="5005" fill="#00b0c7">1993</text><circle cx="50" cy="5000" r="0" stroke="#5ec049" stroke-width="3" fill="#5ec049"/></g><g><line x1="50" y1="5200" x2="155" y2="5200" stroke="#5ec049" stroke-width="3"/><text class="styled" x="45" y="5170" fill="#00b0c7">0</text><text class="styled" x="165" y="5205" fill="#00b0c7">1994</text><circle cx="50" cy="5200" r="0" stroke="#5ec049" stroke-width="3" fill="#5ec049"/></g><g><line x1="50" y1="5400" x2="155" y2="5400" stroke="#5ec049" stroke-width="3"/><text class="styled" x="45" y="5370" fill="#00b0c7">0</text><text class="styled" x="165" y="5405" fill="#00b0c7">1995</text><circle cx="50" cy="5400" r="0" stroke="#5ec049" stroke-width="3" fill="#5ec049"/></g><g><line x1="50" y1="5600" x2="155" y2="5600" stroke="#5ec049" stroke-width="3"/><text class="styled" x="45" y="5570" fill="#00b0c7">0</text><text class="styled" x="165" y="5605" fill="#00b0c7">1996</text><circle cx="50" cy="5600" r="0" stroke="#5ec049" stroke-width="3" fill="#5ec049"/></g><g><line x1="50" y1="5800" x2="155" y2="5800" stroke="#5ec049" stroke-width="3"/><text class="styled" x="45" y="5770" fill="#00b0c7">0</text><text class="styled" x="165" y="5805" fill="#00b0c7">1997</text><circle cx="50" cy="5800" r="0" stroke="#5ec049" stroke-width="3" fill="#5ec049"/></g><g><line x1="50" y1="6000" x2="155" y2="6000" stroke="#5ec049" stroke-width="3"/><text class="styled" x="45" y="5970" fill="#00b0c7">0</text><text class="styled" x="165" y="6005" fill="#00b0c7">1998</text><circle cx="50" cy="6000" r="0" stroke="#5ec049" stroke-width="3" fill="#5ec049"/></g><g><line x1="50" y1="6200" x2="155" y2="6200" stroke="#5ec049" stroke-width="3"/><text class="styled" x="45" y="6170" fill="#00b0c7">1</text><text class="styled" x="-160" y="6190" fill="#00b0c7">The Matrix</text><text class="styled" x="165" y="6205" fill="#00b0c7">1999</text><circle cx="50" cy="6200" r="5" stroke="#5ec049" stroke-width="3" fill="#5ec049"/></g><g><line x1="50" y1="6400" x2="155" y2="6400" stroke="#5ec049" stroke-width="3"/><text class="styled" x="45" y="6370" fill="#00b0c7">0</text><text class="styled" x="165" y="6405" fill="#00b0c7">2000</text><circle cx="50" cy="6400" r="0" stroke="#5ec049" stroke-width="3" fill="#5ec049"/></g><g><line x1="50" y1="6600" x2="155" y2="6600" stroke="#5ec049" stroke-width="3"/><text class="styled" x="45" y="6570" fill="#00b0c7">0</text><text class="styled" x="165" y="6605" fill="#00b0c7">2001</text><circle cx="50" cy="6600" r="0" stroke="#5ec049" stroke-width="3" fill="#5ec049"/></g><g><line x1="50" y1="6800" x2="155" y2="6800" stroke="#5ec049" stroke-width="3"/><text class="styled" x="45" y="6770" fill="#00b0c7">0</text><text class="styled" x="165" y="6805" fill="#00b0c7">2002</text><circle cx="50" cy="6800" r="0" stroke="#5ec049" stroke-width="3" fill="#5ec049"/></g><g><line x1="50" y1="7000" x2="155" y2="7000" stroke="#5ec049" stroke-width="3"/><text class="styled" x="45" y="6970" fill="#00b0c7">0</text><text class="styled" x="165" y="7005" fill="#00b0c7">2003</text><circle cx="50" cy="7000" r="0" stroke="#5ec049" stroke-width="3" fill="#5ec049"/></g><g><line x1="50" y1="7200" x2="155" y2="7200" stroke="#5ec049" stroke-width="3"/><text class="styled" x="45" y="7170" fill="#00b0c7">0</text><text class="styled" x="165" y="7205" fill="#00b0c7">2004</text><circle cx="50" cy="7200" r="0" stroke="#5ec049" stroke-width="3" fill="#5ec049"/></g><g><line x1="50" y1="7400" x2="155" y2="7400" stroke="#5ec049" stroke-width="3"/><text class="styled" x="45" y="7370" fill="#00b0c7">0</text><text class="styled" x="165" y="7405" fill="#00b0c7">2005</text><circle cx="50" cy="7400" r="0" stroke="#5ec049" stroke-width="3" fill="#5ec049"/></g><g><line x1="50" y1="7600" x2="155" y2="7600" stroke="#5ec049" stroke-width="3"/><text class="styled" x="45" y="7570" fill="#00b0c7">0</text><text class="styled" x="165" y="7605" fill="#00b0c7">2006</text><circle cx="50" cy="7600" r="0" stroke="#5ec049" stroke-width="3" fill="#5ec049"/></g><g><line x1="50" y1="7800" x2="155" y2="7800" stroke="#5ec049" stroke-width="3"/><text class="styled" x="45" y="7770" fill="#00b0c7">0</text><text class="styled" x="165" y="7805" fill="#00b0c7">2007</text><circle cx="50" cy="7800" r="0" stroke="#5ec049" stroke-width="3" fill="#5ec049"/></g><g><line x1="50" y1="8000" x2="155" y2="8000" stroke="#5ec049" stroke-width="3"/><text class="styled" x="45" y="7970" fill="#00b0c7">0</text><text class="styled" x="165" y="8005" fill="#00b0c7">2008</text><circle cx="50" cy="8000" r="0" stroke="#5ec049" stroke-width="3" fill="#5ec049"/></g><g><line x1="50" y1="8200" x2="155" y2="8200" stroke="#5ec049" stroke-width="3"/><text class="styled" x="45" y="8170" fill="#00b0c7">0</text><text class="styled" x="165" y="8205" fill="#00b0c7">2009</text><circle cx="50" cy="8200" r="0" stroke="#5ec049" stroke-width="3" fill="#5ec049"/></g><g><line x1="50" y1="8400" x2="155" y2="8400" stroke="#5ec049" stroke-width="3"/><text class="styled" x="45" y="8370" fill="#00b0c7">0</text><text class="styled" x="165" y="8405" fill="#00b0c7">2010</text><circle cx="50" cy="8400" r="0" stroke="#5ec049" stroke-width="3" fill="#5ec049"/></g><g><line x1="50" y1="8600" x2="155" y2="8600" stroke="#5ec049" stroke-width="3"/><text class="styled" x="45" y="8570" fill="#00b0c7">0</text><text class="styled" x="165" y="8605" fill="#00b0c7">2011</text><circle cx="50" cy="8600" r="0" stroke="#5ec049" stroke-width="3" fill="#5ec049"/></g><g><line x1="50" y1="8800" x2="155" y2="8800" stroke="#5ec049" stroke-width="3"/><text class="styled" x="45" y="8770" fill="#00b0c7">0</text><text class="styled" x="165" y="8805" fill="#00b0c7">2012</text><circle cx="50" cy="8800" r="0" stroke="#5ec049" stroke-width="3" fill="#5ec049"/></g><g><line x1="50" y1="9000" x2="155" y2="9000" stroke="#5ec049" stroke-width="3"/><text class="styled" x="45" y="8970" fill="#00b0c7">0</text><text class="styled" x="165" y="9005" fill="#00b0c7">2013</text><circle cx="50" cy="9000" r="0" stroke="#5ec049" stroke-width="3" fill="#5ec049"/></g><g><line x1="50" y1="9200" x2="155" y2="9200" stroke="#5ec049" stroke-width="3"/><text class="styled" x="45" y="9170" fill="#00b0c7">1</text><text class="styled" x="-160" y="9190" fill="#00b0c7">Ex Machina</text><text class="styled" x="165" y="9205" fill="#00b0c7">2014</text><circle cx="50" cy="9200" r="5" stroke="#5ec049" stroke-width="3" fill="#5ec049"/></g></g></svg>