<?xml version="1.0" encoding="UTF-8"?>
<svg xmlns="http://www.w3.org/2000/svg" width="500" height="3000"><g transform="translate(30, 100)"><line x1="100" y1="0" x2="100" y2="33945" stroke="maroon" stroke-width="5"/><g><line x1="50" y1="0" x2="115" y2="0" stroke="black" stroke-width="3"/></g><g><line x1="50" y1="365" x2="115" y2="365" stroke="black" stroke-width="3"/></g><g><line x1="50" y1="730" x2="115" y2="730" stroke="black" stroke-width="3"/></g><g><line x1="50" y1="1095" x2="115" y2="1095" stroke="black" stroke-width="3"/></g><g><line x1="50" y1="1460" x2="115" y2="1460" stroke="black" stroke-width="3"/></g><g><line x1="50" y1="1825" x2="115" y2="1825" stroke="black" stroke-width="3"/></g><g><line x1="50" y1="2190" x2="115" y2="2190" stroke="black" stroke-width="3"/></g><g><line x1="50" y1="2555" x2="115" y2="2555" stroke="black" stroke-width="3"/></g><g><line x1="50" y1="2920" x2="115" y2="2920" stroke="black" stroke-width="3"/></g><g><line x1="50" y1="3285" x2="115" y2="3285" stroke="black" stroke-width="3"/></g><g><line x1="50" y1="3650" x2="115" y2="3650" stroke="black" stroke-width="3"/></g><g><line x1="50" y1="4015" x2="115" y2="4015" stroke="black" stroke-width="3"/></g><g><line x1="50" y1="4380" x2="115" y2="4380" stroke="black" stroke-width="3"/></g><g><line x1="50" y1="4745" x2="115" y2="4745" stroke="black" stroke-width="3"/></g><g><line x1="50" y1="5110" x2="115" y2="5110" stroke="black" stroke-width="3"/></g><g><line x1="50" y1="5475" x2="115" y2="5475" stroke="black" stroke-width="3"/></g><g><line x1="50" y1="5840" x2="115" y2="5840" stroke="black" stroke-width="3"/></g><g><line x1="50" y1="6205" x2="115" y2="6205" stroke="black" stroke-width="3"/></g><g><line x1="50" y1="6570" x2="115" y2="6570" stroke="black" stroke-width="3"/></g><g><line x1="50" y1="6935" x2="115" y2="6935" stroke="black" stroke-width="3"/></g><g><line x1="50" y1="7300" x2="115" y2="7300" stroke="black" stroke-width="3"/></g><g><line x1="50" y1="7665" x2="115" y2="7665" stroke="black" stroke-width="3"/></g><g><line x1="50" y1="8030" x2="115" y2="8030" stroke="black" stroke-width="3"/></g><g><line x1="50" y1="8395" x2="115" y2="8395" stroke="black" stroke-width="3"/></g><g><line x1="50" y1="8760" x2="115" y2="8760" stroke="black" stroke-width="3"/></g><g><line x1="50" y1="9125" x2="115" y2="9125" stroke="black" stroke-width="3"/></g><g><line x1="50" y1="9490" x2="115" y2="9490" stroke="black" stroke-width="3"/></g><g><line x1="50" y1="9855" x2="115" y2="9855" stroke="black" stroke-width="3"/></g><g><line x1="50" y1="10220" x2="115" y2="10220" stroke="black" stroke-width="3"/></g><g><line x1="50" y1="10585" x2="115" y2="10585" stroke="black" stroke-width="3"/></g><g><line x1="50" y1="10950" x2="115" y2="10950" stroke="black" stroke-width="3"/></g><g><line x1="50" y1="11315" x2="115" y2="11315" stroke="black" stroke-width="3"/></g><g><line x1="50" y1="11680" x2="115" y2="11680" stroke="black" stroke-width="3"/></g><g><line x1="50" y1="12045" x2="115" y2="12045" stroke="black" stroke-width="3"/></g><g><line x1="50" y1="12410" x2="115" y2="12410" stroke="black" stroke-width="3"/></g><g><line x1="50" y1="12775" x2="115" y2="12775" stroke="black" stroke-width="3"/></g><g><line x1="50" y1="13140" x2="115" y2="13140" stroke="black" stroke-width="3"/></g><g><line x1="50" y1="13505" x2="115" y2="13505" stroke="black" stroke-width="3"/></g><g><line x1="50" y1="13870" x2="115" y2="13870" stroke="black" stroke-width="3"/></g><g><line x1="50" y1="14235" x2="115" y2="14235" stroke="black" stroke-width="3"/></g><g><line x1="50" y1="14600" x2="115" y2="14600" stroke="black" stroke-width="3"/></g><g><line x1="50" y1="14965" x2="115" y2="14965" stroke="black" stroke-width="3"/></g><g><line x1="50" y1="15330" x2="115" y2="15330" stroke="black" stroke-width="3"/></g><g><line x1="50" y1="15695" x2="115" y2="15695" stroke="black" stroke-width="3"/></g><g><line x1="50" y1="16060" x2="115" y2="16060" stroke="black" stroke-width="3"/></g><g><line x1="50" y1="16425" x2="115" y2="16425" stroke="black" stroke-width="3"/></g><g><line x1="50" y1="16790" x2="115" y2="16790" stroke="black" stroke-width="3"/></g><g><line x1="50" y1="17155" x2="115" y2="17155" stroke="black" stroke-width="3"/></g><g><line x1="50" y1="17520" x2="115" y2="17520" stroke="black" stroke-width="3"/></g><g><line x1="50" y1="17885" x2="115" y2="17885" stroke="black" stroke-width="3"/></g><g><line x1="50" y1="18250" x2="115" y2="18250" stroke="black" stroke-width="3"/></g><g><line x1="50" y1="18615" x2="115" y2="18615" stroke="black" stroke-width="3"/></g><g><line x1="50" y1="18980" x2="115" y2="18980" stroke="black" stroke-width="3"/></g><g><line x1="50" y1="19345" x2="115" y2="19345" stroke="black" stroke-width="3"/></g><g><line x1="50" y1="19710" x2="115" y2="19710" stroke="black" stroke-width="3"/></g><g><line x1="50" y1="20075" x2="115" y2="20075" stroke="black" stroke-width="3"/></g><g><line x1="50" y1="20440" x2="115" y2="20440" stroke="black" stroke-width="3"/></g><g><line x1="50" y1="20805" x2="115" y2="20805" stroke="black" stroke-width="3"/></g><g><line x1="50" y1="21170" x2="115" y2="21170" stroke="black" stroke-width="3"/></g><g><line x1="50" y1="21535" x2="115" y2="21535" stroke="black" stroke-width="3"/></g><g><line x1="50" y1="21900" x2="115" y2="21900" stroke="black" stroke-width="3"/></g><g><line x1="50" y1="22265" x2="115" y2="22265" stroke="black" stroke-width="3"/></g><g><line x1="50" y1="22630" x2="115" y2="22630" stroke="black" stroke-width="3"/></g><g><line x1="50" y1="22995" x2="115" y2="22995" stroke="black" stroke-width="3"/></g><g><line x1="50" y1="23360" x2="115" y2="23360" stroke="black" stroke-width="3"/></g><g><line x1="50" y1="23725" x2="115" y2="23725" stroke="black" stroke-width="3"/></g><g><line x1="50" y1="24090" x2="115" y2="24090" stroke="black" stroke-width="3"/></g><g><line x1="50" y1="24455" x2="115" y2="24455" stroke="black" stroke-width="3"/></g><g><line x1="50" y1="24820" x2="115" y2="24820" stroke="black" stroke-width="3"/></g><g><line x1="50" y1="25185" x2="115" y2="25185" stroke="black" stroke-width="3"/></g><g><line x1="50" y1="25550" x2="115" y2="25550" stroke="black" stroke-width="3"/></g><g><line x1="50" y1="25915" x2="115" y2="25915" stroke="black" stroke-width="3"/></g><g><line x1="50" y1="26280" x2="115" y2="26280" stroke="black" stroke-width="3"/></g><g><line x1="50" y1="26645" x2="115" y2="26645" stroke="black" stroke-width="3"/></g><g><line x1="50" y1="27010" x2="115" y2="27010" stroke="black" stroke-width="3"/></g><g><line x1="50" y1="27375" x2="115" y2="27375" stroke="black" stroke-width="3"/></g><g><line x1="50" y1="27740" x2="115" y2="27740" stroke="black" stroke-width="3"/></g><g><line x1="50" y1="28105" x2="115" y2="28105" stroke="black" stroke-width="3"/></g><g><line x1="50" y1="28470" x2="115" y2="28470" stroke="black" stroke-width="3"/></g><g><line x1="50" y1="28835" x2="115" y2="28835" stroke="black" stroke-width="3"/></g><g><line x1="50" y1="29200" x2="115" y2="29200" stroke="black" stroke-width="3"/></g><g><line x1="50" y1="29565" x2="115" y2="29565" stroke="black" stroke-width="3"/></g><g><line x1="50" y1="29930" x2="115" y2="29930" stroke="black" stroke-width="3"/></g><g><line x1="50" y1="30295" x2="115" y2="30295" stroke="black" stroke-width="3"/></g><g><line x1="50" y1="30660" x2="115" y2="30660" stroke="black" stroke-width="3"/></g><g><line x1="50" y1="31025" x2="115" y2="31025" stroke="black" stroke-width="3"/></g><g><line x1="50" y1="31390" x2="115" y2="31390" stroke="black" stroke-width="3"/></g><g><line x1="50" y1="31755" x2="115" y2="31755" stroke="black" stroke-width="3"/></g><g><line x1="50" y1="32120" x2="115" y2="32120" stroke="black" stroke-width="3"/></g><g><line x1="50" y1="32485" x2="115" y2="32485" stroke="black" stroke-width="3"/></g><g><line x1="50" y1="32850" x2="115" y2="32850" stroke="black" stroke-width="3"/></g><g><line x1="50" y1="33215" x2="115" y2="33215" stroke="black" stroke-width="3"/></g><g><line x1="50" y1="33580" x2="115" y2="33580" stroke="black" stroke-width="3"/></g><g><line x1="50" y1="33945" x2="115" y2="33945" stroke="black" stroke-width="3"/></g></g></svg>