<?xml version="1.0" encoding="UTF-8"?>
<svg xmlns="http://www.w3.org/2000/svg" width="900" height="3055"><g transform="translate(200, 100)"><line x1="50" y1="0" x2="50" y2="2555" stroke="#3333ff" stroke-width="3"/><line x1="200" y1="409" x2="200" y2="2099" stroke="Brown" stroke-width="3"/><text x="200" y="375" style="font-size: 30px;">Haydon Letters</text><text x="210" y="415">First Letter (2/13/1819)</text><!--The +10 moves the date titles down to be level with the lines.--><text x="210" y="2099">Last Letter (10/1/1823)</text><g><line x1="40" y1="0" x2="60" y2="0" stroke="orange" stroke-width="4"/><text x="100" y="0" color="black">1818</text><circle cx="25" cy="0" r="2" stroke="Green" fill="darkred" stroke-width="2"/></g><g><line x1="40" y1="365" x2="60" y2="365" stroke="orange" stroke-width="4"/><text x="100" y="365" color="black">1819</text><circle cx="25" cy="365" r="40" stroke="Green" fill="darkred" stroke-width="2"/></g><g><line x1="40" y1="730" x2="60" y2="730" stroke="orange" stroke-width="4"/><text x="100" y="730" color="black">1820</text><circle cx="25" cy="730" r="20" stroke="Green" fill="darkred" stroke-width="2"/></g><g><line x1="40" y1="1095" x2="60" y2="1095" stroke="orange" stroke-width="4"/><text x="100" y="1095" color="black">1821</text><circle cx="25" cy="1095" r="32" stroke="Green" fill="darkred" stroke-width="2"/></g><g><line x1="40" y1="1460" x2="60" y2="1460" stroke="orange" stroke-width="4"/><text x="100" y="1460" color="black">1822</text><circle cx="25" cy="1460" r="10" stroke="Green" fill="darkred" stroke-width="2"/></g><g><line x1="40" y1="1825" x2="60" y2="1825" stroke="orange" stroke-width="4"/><text x="100" y="1825" color="black">1823</text><circle cx="25" cy="1825" r="18" stroke="Green" fill="darkred" stroke-width="2"/></g><g><line x1="40" y1="2190" x2="60" y2="2190" stroke="orange" stroke-width="4"/><text x="100" y="2190" color="black">1824</text><circle cx="25" cy="2190" r="2" stroke="Green" fill="darkred" stroke-width="2"/></g><g><line x1="40" y1="2555" x2="60" y2="2555" stroke="orange" stroke-width="4"/><text x="100" y="2555" color="black">1825</text><circle cx="25" cy="2555" r="8" stroke="Green" fill="darkred" stroke-width="2"/></g></g></svg>