<?xml version="1.0" encoding="UTF-8"?>
<svg xmlns="http://www.w3.org/2000/svg" width="500" height="3000" viewBox="0,0,800,7000"><g transform="translate(30, 100)"><line x1="50" y1="0" x2="50" y2="2555" style="stroke:blue;stroke-width:4"/><g><line x1="25" y1="0" x2="50" y2="0" style="stroke:blue;stroke-width:4"/><text x="-10" y="5">1818</text><!--The +5 moves the date titles down to be level with the lines.--><circle cx="50" cy="0" r="1" stroke="orange" fill="cyan" stroke-width="2"/></g><g><line x1="25" y1="365" x2="50" y2="365" style="stroke:blue;stroke-width:4"/><text x="-10" y="370">1819</text><!--The +5 moves the date titles down to be level with the lines.--><circle cx="50" cy="365" r="18" stroke="orange" fill="cyan" stroke-width="2"/></g><g><line x1="25" y1="730" x2="50" y2="730" style="stroke:blue;stroke-width:4"/><text x="-10" y="735">1820</text><!--The +5 moves the date titles down to be level with the lines.--><circle cx="50" cy="730" r="10" stroke="orange" fill="cyan" stroke-width="2"/></g><g><line x1="25" y1="1095" x2="50" y2="1095" style="stroke:blue;stroke-width:4"/><text x="-10" y="1100">1821</text><!--The +5 moves the date titles down to be level with the lines.--><circle cx="50" cy="1095" r="17" stroke="orange" fill="cyan" stroke-width="2"/></g><g><line x1="25" y1="1460" x2="50" y2="1460" style="stroke:blue;stroke-width:4"/><text x="-10" y="1465">1822</text><!--The +5 moves the date titles down to be level with the lines.--><circle cx="50" cy="1460" r="5" stroke="orange" fill="cyan" stroke-width="2"/></g><g><line x1="25" y1="1825" x2="50" y2="1825" style="stroke:blue;stroke-width:4"/><text x="-10" y="1830">1823</text><!--The +5 moves the date titles down to be level with the lines.--><circle cx="50" cy="1825" r="4" stroke="orange" fill="cyan" stroke-width="2"/></g><g><line x1="25" y1="2190" x2="50" y2="2190" style="stroke:blue;stroke-width:4"/><text x="-10" y="2195">1824</text><!--The +5 moves the date titles down to be level with the lines.--><circle cx="50" cy="2190" r="1" stroke="orange" fill="cyan" stroke-width="2"/></g><g><line x1="25" y1="2555" x2="50" y2="2555" style="stroke:blue;stroke-width:4"/><text x="-10" y="2560">1825</text><!--The +5 moves the date titles down to be level with the lines.--><circle cx="50" cy="2555" r="4" stroke="orange" fill="cyan" stroke-width="2"/></g></g></svg>