<?xml version="1.0" encoding="UTF-8"?>
<!DOCTYPE svg PUBLIC "-//W3C//DTD SVG 1.0//EN" "http://www.w3.org/TR/2001/REC-SVG-20010904/DTD/svg10.dtd">
<svg xmlns="http://www.w3.org/2000/svg" width="100%" height="100%">
    <desc></desc>
    <g>
        <line stroke="black" y2="10" y1="225" x2="70" x1="70"/>
        <line stroke="black" y2="225" y1="225" x2="480" x1="70"/>
        <line stroke-dasharray="8 4" stroke="black" y2="225" y1="10" x2="150" x1="150"/>
        <line stroke-dasharray="8 4" stroke="black" y2="225" y1="10" x2="230" x1="230"/>
        <line stroke-dasharray="8 4" stroke="black" y2="225" y1="10" x2="310" x1="310"/>
        <line stroke-dasharray="8 4" stroke="black" y2="225" y1="10" x2="390" x1="390"/>
        <line stroke-dasharray="8 4" stroke="black" y2="225" y1="10" x2="470" x1="470"/>
        <line stroke="blue" y2="37" y1="37" x2="470" x1="70"/>
        <line stroke="blue" y2="57" y1="57" x2="150" x1="70"/>
        <line stroke="blue" y2="77" y1="77" x2="150" x1="70"/>
        <line stroke="blue" y2="97" y1="97" x2="150" x1="70"/>
        <line stroke="blue" y2="117" y1="117" x2="150" x1="70"/>
        <line stroke="blue" y2="137" y1="137" x2="150" x1="70"/>
        <line stroke="blue" y2="157" y1="157" x2="390" x1="70"/>
        <line stroke="blue" y2="177" y1="177" x2="310" x1="70"/>
        <line stroke="blue" y2="197" y1="197" x2="150" x1="70"/>
        <text text-anchor="end" y="250" x="150">1</text>
        <text text-anchor="end" y="250" x="230">2</text>
        <text text-anchor="end" y="250" x="310">3</text>
        <text text-anchor="end" y="250" x="390">4</text>
        <text text-anchor="end" y="250" x="470">5</text>
        <text text-anchor="end" y="40" x="60">Duncan</text>
        <text text-anchor="end" y="60" x="60">Gunderson</text>
        <text text-anchor="end" y="80" x="60">Hall</text>
        <text text-anchor="end" y="100" x="60">Luther</text>
        <text text-anchor="end" y="120" x="60">Millard</text>
        <text text-anchor="end" y="140" x="60">Morris</text>
        <text text-anchor="end" y="160" x="60">Schori</text>
        <text text-anchor="end" y="180" x="60">Werner</text>
        <text text-anchor="end" y="200" x="60">Williams</text>
    </g>
</svg>