<?xml version="1.0" encoding="UTF-8"?>
<!DOCTYPE svg PUBLIC "-//W3C//DTD SVG 1.0//EN" "http://www.w3.org/TR/2001/REC-SVG-20010904/DTD/svg10.dtd">
<svg xmlns="http://www.w3.org/2000/svg" width="100%" height="100%">
    <desc></desc>
    <g>
    <line x1="70" x2="70" y1="325" y2="20" stroke="black"/>
    <line x1="70" x2="480" y1="325" y2="325" stroke="black"/>
    <line x1="150" x2="150" y1="20" y2="325" stroke="black" stroke-dasharray="8 4"/>
    <line x1="230" x2="230" y1="20" y2="325" stroke="black" stroke-dasharray="8 4"/>
    <line x1="310" x2="310" y1="20" y2="325" stroke="black" stroke-dasharray="8 4"/>
    <line x1="390" x2="390" y1="20" y2="325" stroke="black" stroke-dasharray="8 4"/>
    <line x1="470" x2="470" y1="20" y2="325" stroke="black" stroke-dasharray="8 4"/>
    <line x1="70" x2="150" y1="57" y2="57" stroke="blue"/>
    <line x1="70" x2="150" y1="77" y2="77" stroke="blue"/>
    <line x1="70" x2="150" y1="97" y2="97" stroke="blue"/>
    <line x1="70" x2="150" y1="117" y2="117" stroke="blue"/>
    <line x1="70" x2="150" y1="137" y2="137" stroke="blue"/>
    <line x1="70" x2="150" y1="157" y2="157" stroke="blue"/>
    <line x1="70" x2="150" y1="177" y2="177" stroke="blue"/>
    <line x1="70" x2="230" y1="197" y2="197" stroke="blue"/>
    <line x1="70" x2="310" y1="217" y2="217" stroke="blue"/>
    <line x1="70" x2="150" y1="237" y2="237" stroke="blue"/>
    <line x1="70" x2="150" y1="257" y2="257" stroke="blue"/>
    <line x1="70" x2="150" y1="277" y2="277" stroke="blue"/>
    <line x1="70" x2="150" y1="297" y2="297" stroke="blue"/>
    <text x="150" y="350" text-anchor="end">1</text>
    <text x="230" y="350" text-anchor="end">2</text>
    <text x="310" y="350" text-anchor="end">3</text>
    <text x="390" y="350" text-anchor="end">4</text>
    <text x="470" y="350" text-anchor="end">5</text>
    <text x="60" y="60" text-anchor="end">Bonner</text>
    <text x="60" y="80" text-anchor="end">Brunot</text>
    <text x="60" y="100" text-anchor="end">Creehan</text>
    <text x="60" y="120" text-anchor="end">Grinnell</text>
    <text x="65" y="140" text-anchor="end">Gunderson</text>
    <text x="60" y="160" text-anchor="end">Howell</text>
    <text x="65" y="180" text-anchor="end">M. Cassatt</text>
    <text x="60" y="200" text-anchor="end">Millard</text>
    <text x="60" y="220" text-anchor="end">Munson</text>
    <text x="60" y="240" text-anchor="end">Penn</text>
    <text x="65" y="260" text-anchor="end">R. Cassatt</text>
    <text x="60" y="280" text-anchor="end">Radner</text>
    <text x="60" y="300" text-anchor="end">Robison</text>
    </g>
</svg>