<?xml version="1.0" encoding="UTF-8"?>
<!DOCTYPE svg PUBLIC "-//W3C//DTD SVG 1.0//EN" "http://www.w3.org/TR/2001/REC-SVG-20010904/DTD/svg10.dtd">
<svg xmlns="http://www.w3.org/2000/svg" width="100%" height="100%">
    <desc></desc>
    <g>
        <line x1="70" x2="70" y1="225" y2="20" stroke="black"/>
        <line x1="70" x2="480" y1="225" y2="225" stroke="black"/>
        <line x1="150" x2="150" y1="20" y2="225" stroke="black" stroke-dasharray="8 4"/>
        <line x1="230" x2="230" y1="20" y2="225" stroke="black" stroke-dasharray="8 4"/>
        <line x1="310" x2="310" y1="20" y2="225" stroke="black" stroke-dasharray="8 4"/>
        <line x1="390" x2="390" y1="20" y2="225" stroke="black" stroke-dasharray="8 4"/>
        <line x1="470" x2="470" y1="20" y2="225" stroke="black" stroke-dasharray="8 4"/>
        <line x1="70" x2="230" y1="57" y2="57" stroke="blue"/>
        <line x1="70" x2="150" y1="77" y2="77" stroke="blue"/>
        <line x1="70" x2="230" y1="97" y2="97" stroke="blue"/>
        <line x1="70" x2="390" y1="117" y2="117" stroke="blue"/>
        <line x1="70" x2="150" y1="137" y2="137" stroke="blue"/>
        <line x1="70" x2="150" y1="157" y2="157" stroke="blue"/>
        <line x1="70" x2="470" y1="177" y2="177" stroke="green"/>
        <line x1="70" x2="150" y1="197" y2="197" stroke="blue"/>
        <text x="150" y="250" text-anchor="end">1</text>
        <text x="230" y="250" text-anchor="end">2</text>
        <text x="310" y="250" text-anchor="end">3</text>
        <text x="390" y="250" text-anchor="end">4</text>
        <text x="470" y="250" text-anchor="end">5</text>
        <text x="60" y="60" text-anchor="end">Duncan</text>
        <text x="60" y="80" text-anchor="end">Griswald</text>
        <text x="60" y="100" text-anchor="end">Herrmann</text>
        <text x="60" y="120" text-anchor="end">Robinson</text>
        <text x="60" y="140" text-anchor="end">Russel</text>
        <text x="60" y="160" text-anchor="end">Sachs</text>
        <text x="60" y="180" text-anchor="end">Schori</text>
        <text x="490" y="180" text-anchor="end">13</text>
        <text x="60" y="200" text-anchor="end">Williams</text>
    </g>
</svg>