<?xml version="1.0" encoding="UTF-8"?>
<!DOCTYPE svg PUBLIC "-//W3C//DTD SVG 1.0//EN" "http://www.w3.org/TR/2001/REC-SVG-20010904/DTD/svg10.dtd">
<svg xmlns="http://www.w3.org/2000/svg" width="100%" height="100%">
    <desc></desc>
    <g>
        <line x1="70" x2="70" y1="385" y2="20" stroke="black"/>
        <line x1="70" x2="480" y1="385" y2="385" stroke="black"/>
        <line x1="150" x2="150" y1="20" y2="385" stroke="black" stroke-dasharray="8 4"/>
        <line x1="230" x2="230" y1="20" y2="385" stroke="black" stroke-dasharray="8 4"/>
        <line x1="310" x2="310" y1="20" y2="385" stroke="black" stroke-dasharray="8 4"/>
        <line x1="390" x2="390" y1="20" y2="385" stroke="black" stroke-dasharray="8 4"/>
        <line x1="470" x2="470" y1="20" y2="385" stroke="black" stroke-dasharray="8 4"/>
        <line x1="70" x2="150" y1="57" y2="57" stroke="blue"/>
        <line x1="70" x2="150" y1="77" y2="77" stroke="blue"/>
        <line x1="70" x2="470" y1="97" y2="97" stroke="green"/>
        <line x1="70" x2="230" y1="117" y2="117" stroke="blue"/>
        <line x1="70" x2="150" y1="137" y2="137" stroke="blue"/>
        <line x1="70" x2="150" y1="157" y2="157" stroke="blue"/>
        <line x1="70" x2="470" y1="177" y2="177" stroke="blue"/>
        <line x1="70" x2="150" y1="197" y2="197" stroke="blue"/>
        <line x1="70" x2="150" y1="217" y2="217" stroke="blue"/>
        <line x1="70" x2="150" y1="237" y2="237" stroke="blue"/>
        <line x1="70" x2="150" y1="257" y2="257" stroke="blue"/>
        <line x1="70" x2="150" y1="277" y2="277" stroke="blue"/>
        <line x1="70" x2="150" y1="297" y2="297" stroke="blue"/>
        <line x1="70" x2="150" y1="317" y2="317" stroke="blue"/>
        <line x1="70" x2="150" y1="337" y2="337" stroke="blue"/>
        <line x1="70" x2="150" y1="357" y2="357" stroke="blue"/>
        <text x="150" y="410" text-anchor="end">1</text>
        <text x="230" y="410" text-anchor="end">2</text>
        <text x="310" y="410" text-anchor="end">3</text>
        <text x="390" y="410" text-anchor="end">4</text>
        <text x="470" y="410" text-anchor="end">5</text>
        <text x="60" y="60" text-anchor="end">Deihle</text>
        <text x="60" y="80" text-anchor="end">Deimel</text>
        <text x="60" y="100" text-anchor="end">Duncan</text>
        <text text-anchor="end" y="100" x="490">6</text>
        <text x="60" y="120" text-anchor="end">Edwards</text>
        <text x="60" y="140" text-anchor="end">Gargotta</text>
        <text x="60" y="160" text-anchor="end">Hetzler</text>
        <text x="60" y="180" text-anchor="end">Hicks</text>
        <text x="60" y="200" text-anchor="end">Johnson</text>
        <text x="60" y="220" text-anchor="end">Lewis</text>
        <text x="60" y="240" text-anchor="end">Millard</text>
        <text x="60" y="260" text-anchor="end">Pollard</text>
        <text x="60" y="280" text-anchor="end">Simons</text>
        <text x="60" y="300" text-anchor="end">Stevonson</text>
        <text x="60" y="320" text-anchor="end">Sweigert</text>
        <text x="60" y="340" text-anchor="end">Toth</text>
        <text x="60" y="360" text-anchor="end">Wilson</text>
    </g>
</svg>