<?xml version="1.0" encoding="UTF-8"?>
<svg xmlns="http://www.w3.org/2000/svg" xmlns:xlink="http://www.w3.org/1999/xlink" width="800" height="34945" viewBox="(x50,y33945,x115,y33945)"><g transform="translate(30, 100)"><line x1="100" y1="0" x2="100" y2="33945" stroke="maroon" stroke-width="5"/><!-- <text x="120" y="20">{string-join($diaryNames,' , ')}</text>--><g><line x1="50" y1="0" x2="115" y2="0" stroke="black" stroke-width="3"/><text x="120" y="0">1784</text><a xlink:href="Personography.html#AO" xlink:title="View the Personography Entry"><text x="200" y="0">Abraham Overholt</text></a></g><g><line x1="50" y1="365" x2="115" y2="365" stroke="black" stroke-width="3"/><text x="120" y="365">1785</text><a xlink:href="Personography.html#" xlink:title="View the Personography Entry"><text x="200" y="365"/></a></g><g><line x1="50" y1="730" x2="115" y2="730" stroke="black" stroke-width="3"/><text x="120" y="730">1786</text><a xlink:href="Personography.html#" xlink:title="View the Personography Entry"><text x="200" y="730"/></a></g><g><line x1="50" y1="1095" x2="115" y2="1095" stroke="black" stroke-width="3"/><text x="120" y="1095">1787</text><a xlink:href="Personography.html#" xlink:title="View the Personography Entry"><text x="200" y="1095"/></a></g><g><line x1="50" y1="1460" x2="115" y2="1460" stroke="black" stroke-width="3"/><text x="120" y="1460">1788</text><a xlink:href="Personography.html#" xlink:title="View the Personography Entry"><text x="200" y="1460"/></a></g><g><line x1="50" y1="1825" x2="115" y2="1825" stroke="black" stroke-width="3"/><text x="120" y="1825">1789</text><a xlink:href="Personography.html#" xlink:title="View the Personography Entry"><text x="200" y="1825"/></a></g><g><line x1="50" y1="2190" x2="115" y2="2190" stroke="black" stroke-width="3"/><text x="120" y="2190">1790</text><a xlink:href="Personography.html#" xlink:title="View the Personography Entry"><text x="200" y="2190"/></a></g><g><line x1="50" y1="2555" x2="115" y2="2555" stroke="black" stroke-width="3"/><text x="120" y="2555">1791</text><a xlink:href="Personography.html#" xlink:title="View the Personography Entry"><text x="200" y="2555"/></a></g><g><line x1="50" y1="2920" x2="115" y2="2920" stroke="black" stroke-width="3"/><text x="120" y="2920">1792</text><a xlink:href="Personography.html#" xlink:title="View the Personography Entry"><text x="200" y="2920"/></a></g><g><line x1="50" y1="3285" x2="115" y2="3285" stroke="black" stroke-width="3"/><text x="120" y="3285">1793</text><a xlink:href="Personography.html#" xlink:title="View the Personography Entry"><text x="200" y="3285"/></a></g><g><line x1="50" y1="3650" x2="115" y2="3650" stroke="black" stroke-width="3"/><text x="120" y="3650">1794</text><a xlink:href="Personography.html#" xlink:title="View the Personography Entry"><text x="200" y="3650"/></a></g><g><line x1="50" y1="4015" x2="115" y2="4015" stroke="black" stroke-width="3"/><text x="120" y="4015">1795</text><a xlink:href="Personography.html#" xlink:title="View the Personography Entry"><text x="200" y="4015"/></a></g><g><line x1="50" y1="4380" x2="115" y2="4380" stroke="black" stroke-width="3"/><text x="120" y="4380">1796</text><a xlink:href="Personography.html#" xlink:title="View the Personography Entry"><text x="200" y="4380"/></a></g><g><line x1="50" y1="4745" x2="115" y2="4745" stroke="black" stroke-width="3"/><text x="120" y="4745">1797</text><a xlink:href="Personography.html#JDO" xlink:title="View the Personography Entry"><text x="200" y="4745">John Detweiler Overholt</text></a></g><g><line x1="50" y1="5110" x2="115" y2="5110" stroke="black" stroke-width="3"/><text x="120" y="5110">1798</text><a xlink:href="Personography.html#" xlink:title="View the Personography Entry"><text x="200" y="5110"/></a></g><g><line x1="50" y1="5475" x2="115" y2="5475" stroke="black" stroke-width="3"/><text x="120" y="5475">1799</text><a xlink:href="Personography.html#" xlink:title="View the Personography Entry"><text x="200" y="5475"/></a></g><g><line x1="50" y1="5840" x2="115" y2="5840" stroke="black" stroke-width="3"/><text x="120" y="5840">1800</text><a xlink:href="Personography.html#" xlink:title="View the Personography Entry"><text x="200" y="5840"/></a></g><g><line x1="50" y1="6205" x2="115" y2="6205" stroke="black" stroke-width="3"/><text x="120" y="6205">1801</text><a xlink:href="Personography.html#NB" xlink:title="View the Personography Entry"><text x="200" y="6205">Nancy Bixler</text></a></g><g><line x1="50" y1="6570" x2="115" y2="6570" stroke="black" stroke-width="3"/><text x="120" y="6570">1802</text><a xlink:href="Personography.html#" xlink:title="View the Personography Entry"><text x="200" y="6570"/></a></g><g><line x1="50" y1="6935" x2="115" y2="6935" stroke="black" stroke-width="3"/><text x="120" y="6935">1803</text><a xlink:href="Personography.html#" xlink:title="View the Personography Entry"><text x="200" y="6935"/></a></g><g><line x1="50" y1="7300" x2="115" y2="7300" stroke="black" stroke-width="3"/><text x="120" y="7300">1804</text><a xlink:href="Personography.html#ESO" xlink:title="View the Personography Entry"><text x="200" y="7300">Elizabeth Stauffer Overholt</text></a></g><g><line x1="50" y1="7665" x2="115" y2="7665" stroke="black" stroke-width="3"/><text x="120" y="7665">1805</text><a xlink:href="Personography.html#" xlink:title="View the Personography Entry"><text x="200" y="7665"/></a></g><g><line x1="50" y1="8030" x2="115" y2="8030" stroke="black" stroke-width="3"/><text x="120" y="8030">1806</text><a xlink:href="Personography.html#" xlink:title="View the Personography Entry"><text x="200" y="8030"/></a></g><g><line x1="50" y1="8395" x2="115" y2="8395" stroke="black" stroke-width="3"/><text x="120" y="8395">1807</text><a xlink:href="Personography.html#" xlink:title="View the Personography Entry"><text x="200" y="8395"/></a></g><g><line x1="50" y1="8760" x2="115" y2="8760" stroke="black" stroke-width="3"/><text x="120" y="8760">1808</text><a xlink:href="Personography.html#" xlink:title="View the Personography Entry"><text x="200" y="8760"/></a></g><g><line x1="50" y1="9125" x2="115" y2="9125" stroke="black" stroke-width="3"/><text x="120" y="9125">1809</text><a xlink:href="Personography.html#" xlink:title="View the Personography Entry"><text x="200" y="9125"/></a></g><g><line x1="50" y1="9490" x2="115" y2="9490" stroke="black" stroke-width="3"/><text x="120" y="9490">1810</text><a xlink:href="Personography.html#HSO" xlink:title="View the Personography Entry"><text x="200" y="9490">Henry Stauffer Overholt</text></a></g><g><line x1="50" y1="9855" x2="115" y2="9855" stroke="black" stroke-width="3"/><text x="120" y="9855">1811</text><a xlink:href="Personography.html#" xlink:title="View the Personography Entry"><text x="200" y="9855"/></a></g><g><line x1="50" y1="10220" x2="115" y2="10220" stroke="black" stroke-width="3"/><text x="120" y="10220">1812</text><a xlink:href="Personography.html#" xlink:title="View the Personography Entry"><text x="200" y="10220"/></a></g><g><line x1="50" y1="10585" x2="115" y2="10585" stroke="black" stroke-width="3"/><text x="120" y="10585">1813</text><a xlink:href="Personography.html#" xlink:title="View the Personography Entry"><text x="200" y="10585"/></a></g><g><line x1="50" y1="10950" x2="115" y2="10950" stroke="black" stroke-width="3"/><text x="120" y="10950">1814</text><a xlink:href="Personography.html#JSO" xlink:title="View the Personography Entry"><text x="200" y="10950">Jacob Stauffer Overholt</text></a></g><g><line x1="50" y1="11315" x2="115" y2="11315" stroke="black" stroke-width="3"/><text x="120" y="11315">1815</text><a xlink:href="Personography.html#" xlink:title="View the Personography Entry"><text x="200" y="11315"/></a></g><g><line x1="50" y1="11680" x2="115" y2="11680" stroke="black" stroke-width="3"/><text x="120" y="11680">1816</text><a xlink:href="Personography.html#MFFO" xlink:title="View the Personography Entry"><text x="200" y="11680">Mary F. Fox Overholt</text></a></g><g><line x1="50" y1="12045" x2="115" y2="12045" stroke="black" stroke-width="3"/><text x="120" y="12045">1817</text><a xlink:href="Personography.html#" xlink:title="View the Personography Entry"><text x="200" y="12045"/></a></g><g><line x1="50" y1="12410" x2="115" y2="12410" stroke="black" stroke-width="3"/><text x="120" y="12410">1818</text><a xlink:href="Personography.html#" xlink:title="View the Personography Entry"><text x="200" y="12410"/></a></g><g><line x1="50" y1="12775" x2="115" y2="12775" stroke="black" stroke-width="3"/><text x="120" y="12775">1819</text><a xlink:href="Personography.html#" xlink:title="View the Personography Entry"><text x="200" y="12775"/></a></g><g><line x1="50" y1="13140" x2="115" y2="13140" stroke="black" stroke-width="3"/><text x="120" y="13140">1820</text><a xlink:href="Personography.html#" xlink:title="View the Personography Entry"><text x="200" y="13140"/></a></g><g><line x1="50" y1="13505" x2="115" y2="13505" stroke="black" stroke-width="3"/><text x="120" y="13505">1821</text><a xlink:href="Personography.html#" xlink:title="View the Personography Entry"><text x="200" y="13505"/></a></g><g><line x1="50" y1="13870" x2="115" y2="13870" stroke="black" stroke-width="3"/><text x="120" y="13870">1822</text><a xlink:href="Personography.html#" xlink:title="View the Personography Entry"><text x="200" y="13870"/></a></g><g><line x1="50" y1="14235" x2="115" y2="14235" stroke="black" stroke-width="3"/><text x="120" y="14235">1823</text><a xlink:href="Personography.html#" xlink:title="View the Personography Entry"><text x="200" y="14235"/></a></g><g><line x1="50" y1="14600" x2="115" y2="14600" stroke="black" stroke-width="3"/><text x="120" y="14600">1824</text><a xlink:href="Personography.html#CSO" xlink:title="View the Personography Entry"><text x="200" y="14600">Christian Stauffer Overholt</text></a></g><g><line x1="50" y1="14965" x2="115" y2="14965" stroke="black" stroke-width="3"/><text x="120" y="14965">1825</text><a xlink:href="Personography.html#" xlink:title="View the Personography Entry"><text x="200" y="14965"/></a></g><g><line x1="50" y1="15330" x2="115" y2="15330" stroke="black" stroke-width="3"/><text x="120" y="15330">1826</text><a xlink:href="Personography.html#" xlink:title="View the Personography Entry"><text x="200" y="15330"/></a></g><g><line x1="50" y1="15695" x2="115" y2="15695" stroke="black" stroke-width="3"/><text x="120" y="15695">1827</text><a xlink:href="Personography.html#" xlink:title="View the Personography Entry"><text x="200" y="15695"/></a></g><g><line x1="50" y1="16060" x2="115" y2="16060" stroke="black" stroke-width="3"/><text x="120" y="16060">1828</text><a xlink:href="Personography.html#" xlink:title="View the Personography Entry"><text x="200" y="16060"/></a></g><g><line x1="50" y1="16425" x2="115" y2="16425" stroke="black" stroke-width="3"/><text x="120" y="16425">1829</text><a xlink:href="Personography.html#ALT LS" xlink:title="View the Personography Entry"><text x="200" y="16425">Anna Leighty Tinstman , John Lloyd Shallenberger</text></a></g><g><line x1="50" y1="16790" x2="115" y2="16790" stroke="black" stroke-width="3"/><text x="120" y="16790">1830</text><a xlink:href="Personography.html#" xlink:title="View the Personography Entry"><text x="200" y="16790"/></a></g><g><line x1="50" y1="17155" x2="115" y2="17155" stroke="black" stroke-width="3"/><text x="120" y="17155">1831</text><a xlink:href="Personography.html#" xlink:title="View the Personography Entry"><text x="200" y="17155"/></a></g><g><line x1="50" y1="17520" x2="115" y2="17520" stroke="black" stroke-width="3"/><text x="120" y="17520">1832</text><a xlink:href="Personography.html#" xlink:title="View the Personography Entry"><text x="200" y="17520"/></a></g><g><line x1="50" y1="17885" x2="115" y2="17885" stroke="black" stroke-width="3"/><text x="120" y="17885">1833</text><a xlink:href="Personography.html#" xlink:title="View the Personography Entry"><text x="200" y="17885"/></a></g><g><line x1="50" y1="18250" x2="115" y2="18250" stroke="black" stroke-width="3"/><text x="120" y="18250">1834</text><a xlink:href="Personography.html#AOT" xlink:title="View the Personography Entry"><text x="200" y="18250">Abraham Overholt Tinstman</text></a></g><g><line x1="50" y1="18615" x2="115" y2="18615" stroke="black" stroke-width="3"/><text x="120" y="18615">1835</text><a xlink:href="Personography.html#" xlink:title="View the Personography Entry"><text x="200" y="18615"/></a></g><g><line x1="50" y1="18980" x2="115" y2="18980" stroke="black" stroke-width="3"/><text x="120" y="18980">1836</text><a xlink:href="Personography.html#" xlink:title="View the Personography Entry"><text x="200" y="18980"/></a></g><g><line x1="50" y1="19345" x2="115" y2="19345" stroke="black" stroke-width="3"/><text x="120" y="19345">1837</text><a xlink:href="Personography.html#ASRO" xlink:title="View the Personography Entry"><text x="200" y="19345">Aaron S.R. Overholt</text></a></g><g><line x1="50" y1="19710" x2="115" y2="19710" stroke="black" stroke-width="3"/><text x="120" y="19710">1838</text><a xlink:href="Personography.html#" xlink:title="View the Personography Entry"><text x="200" y="19710"/></a></g><g><line x1="50" y1="20075" x2="115" y2="20075" stroke="black" stroke-width="3"/><text x="120" y="20075">1839</text><a xlink:href="Personography.html#JR" xlink:title="View the Personography Entry"><text x="200" y="20075">Joseph Rist</text></a></g><g><line x1="50" y1="20440" x2="115" y2="20440" stroke="black" stroke-width="3"/><text x="120" y="20440">1840</text><a xlink:href="Personography.html#CSRO" xlink:title="View the Personography Entry"><text x="200" y="20440">Christian SR Overholt</text></a></g><g><line x1="50" y1="20805" x2="115" y2="20805" stroke="black" stroke-width="3"/><text x="120" y="20805">1841</text><a xlink:href="Personography.html#" xlink:title="View the Personography Entry"><text x="200" y="20805"/></a></g><g><line x1="50" y1="21170" x2="115" y2="21170" stroke="black" stroke-width="3"/><text x="120" y="21170">1842</text><a xlink:href="Personography.html#" xlink:title="View the Personography Entry"><text x="200" y="21170"/></a></g><g><line x1="50" y1="21535" x2="115" y2="21535" stroke="black" stroke-width="3"/><text x="120" y="21535">1843</text><a xlink:href="Personography.html#" xlink:title="View the Personography Entry"><text x="200" y="21535"/></a></g><g><line x1="50" y1="21900" x2="115" y2="21900" stroke="black" stroke-width="3"/><text x="120" y="21900">1844</text><a xlink:href="Personography.html#" xlink:title="View the Personography Entry"><text x="200" y="21900"/></a></g><g><line x1="50" y1="22265" x2="115" y2="22265" stroke="black" stroke-width="3"/><text x="120" y="22265">1845</text><a xlink:href="Personography.html#" xlink:title="View the Personography Entry"><text x="200" y="22265"/></a></g><g><line x1="50" y1="22630" x2="115" y2="22630" stroke="black" stroke-width="3"/><text x="120" y="22630">1846</text><a xlink:href="Personography.html#SAO" xlink:title="View the Personography Entry"><text x="200" y="22630">Sarah Ann Overholt</text></a></g><g><line x1="50" y1="22995" x2="115" y2="22995" stroke="black" stroke-width="3"/><text x="120" y="22995">1847</text><a xlink:href="Personography.html#JSRO HOT" xlink:title="View the Personography Entry"><text x="200" y="22995">John SR Overholt , Harriet Overholt Tinstman</text></a></g><g><line x1="50" y1="23360" x2="115" y2="23360" stroke="black" stroke-width="3"/><text x="120" y="23360">1848</text><a xlink:href="Personography.html#" xlink:title="View the Personography Entry"><text x="200" y="23360"/></a></g><g><line x1="50" y1="23725" x2="115" y2="23725" stroke="black" stroke-width="3"/><text x="120" y="23725">1849</text><a xlink:href="Personography.html#HCF MFO" xlink:title="View the Personography Entry"><text x="200" y="23725">Henry Clay Frick , Maria Overholt Frick Overholt</text></a></g><g><line x1="50" y1="24090" x2="115" y2="24090" stroke="black" stroke-width="3"/><text x="120" y="24090">1850</text><a xlink:href="Personography.html#" xlink:title="View the Personography Entry"><text x="200" y="24090"/></a></g><g><line x1="50" y1="24455" x2="115" y2="24455" stroke="black" stroke-width="3"/><text x="120" y="24455">1851</text><a xlink:href="Personography.html#" xlink:title="View the Personography Entry"><text x="200" y="24455"/></a></g><g><line x1="50" y1="24820" x2="115" y2="24820" stroke="black" stroke-width="3"/><text x="120" y="24820">1852</text><a xlink:href="Personography.html#" xlink:title="View the Personography Entry"><text x="200" y="24820"/></a></g><g><line x1="50" y1="25185" x2="115" y2="25185" stroke="black" stroke-width="3"/><text x="120" y="25185">1853</text><a xlink:href="Personography.html#" xlink:title="View the Personography Entry"><text x="200" y="25185"/></a></g><g><line x1="50" y1="25550" x2="115" y2="25550" stroke="black" stroke-width="3"/><text x="120" y="25550">1854</text><a xlink:href="Personography.html#" xlink:title="View the Personography Entry"><text x="200" y="25550"/></a></g><g><line x1="50" y1="25915" x2="115" y2="25915" stroke="black" stroke-width="3"/><text x="120" y="25915">1855</text><a xlink:href="Personography.html#" xlink:title="View the Personography Entry"><text x="200" y="25915"/></a></g><g><line x1="50" y1="26280" x2="115" y2="26280" stroke="black" stroke-width="3"/><text x="120" y="26280">1856</text><a xlink:href="Personography.html#" xlink:title="View the Personography Entry"><text x="200" y="26280"/></a></g><g><line x1="50" y1="26645" x2="115" y2="26645" stroke="black" stroke-width="3"/><text x="120" y="26645">1857</text><a xlink:href="Personography.html#" xlink:title="View the Personography Entry"><text x="200" y="26645"/></a></g><g><line x1="50" y1="27010" x2="115" y2="27010" stroke="black" stroke-width="3"/><text x="120" y="27010">1858</text><a xlink:href="Personography.html#" xlink:title="View the Personography Entry"><text x="200" y="27010"/></a></g><g><line x1="50" y1="27375" x2="115" y2="27375" stroke="black" stroke-width="3"/><text x="120" y="27375">1859</text><a xlink:href="Personography.html#ACF" xlink:title="View the Personography Entry"><text x="200" y="27375">Adelaide Howards Clay Frick</text></a></g><g><line x1="50" y1="27740" x2="115" y2="27740" stroke="black" stroke-width="3"/><text x="120" y="27740">1860</text><a xlink:href="Personography.html#" xlink:title="View the Personography Entry"><text x="200" y="27740"/></a></g><g><line x1="50" y1="28105" x2="115" y2="28105" stroke="black" stroke-width="3"/><text x="120" y="28105">1861</text><a xlink:href="Personography.html#" xlink:title="View the Personography Entry"><text x="200" y="28105"/></a></g><g><line x1="50" y1="28470" x2="115" y2="28470" stroke="black" stroke-width="3"/><text x="120" y="28470">1862</text><a xlink:href="Personography.html#" xlink:title="View the Personography Entry"><text x="200" y="28470"/></a></g><g><line x1="50" y1="28835" x2="115" y2="28835" stroke="black" stroke-width="3"/><text x="120" y="28835">1863</text><a xlink:href="Personography.html#" xlink:title="View the Personography Entry"><text x="200" y="28835"/></a></g><g><line x1="50" y1="29200" x2="115" y2="29200" stroke="black" stroke-width="3"/><text x="120" y="29200">1864</text><a xlink:href="Personography.html#" xlink:title="View the Personography Entry"><text x="200" y="29200"/></a></g><g><line x1="50" y1="29565" x2="115" y2="29565" stroke="black" stroke-width="3"/><text x="120" y="29565">1865</text><a xlink:href="Personography.html#" xlink:title="View the Personography Entry"><text x="200" y="29565"/></a></g><g><line x1="50" y1="29930" x2="115" y2="29930" stroke="black" stroke-width="3"/><text x="120" y="29930">1866</text><a xlink:href="Personography.html#" xlink:title="View the Personography Entry"><text x="200" y="29930"/></a></g><g><line x1="50" y1="30295" x2="115" y2="30295" stroke="black" stroke-width="3"/><text x="120" y="30295">1867</text><a xlink:href="Personography.html#" xlink:title="View the Personography Entry"><text x="200" y="30295"/></a></g><g><line x1="50" y1="30660" x2="115" y2="30660" stroke="black" stroke-width="3"/><text x="120" y="30660">1868</text><a xlink:href="Personography.html#" xlink:title="View the Personography Entry"><text x="200" y="30660"/></a></g><g><line x1="50" y1="31025" x2="115" y2="31025" stroke="black" stroke-width="3"/><text x="120" y="31025">1869</text><a xlink:href="Personography.html#" xlink:title="View the Personography Entry"><text x="200" y="31025"/></a></g><g><line x1="50" y1="31390" x2="115" y2="31390" stroke="black" stroke-width="3"/><text x="120" y="31390">1870</text><a xlink:href="Personography.html#RO" xlink:title="View the Personography Entry"><text x="200" y="31390">Ralph Overholt</text></a></g><g><line x1="50" y1="31755" x2="115" y2="31755" stroke="black" stroke-width="3"/><text x="120" y="31755">1871</text><a xlink:href="Personography.html#" xlink:title="View the Personography Entry"><text x="200" y="31755"/></a></g><g><line x1="50" y1="32120" x2="115" y2="32120" stroke="black" stroke-width="3"/><text x="120" y="32120">1872</text><a xlink:href="Personography.html#GMO" xlink:title="View the Personography Entry"><text x="200" y="32120">Grace M Overholt</text></a></g><g><line x1="50" y1="32485" x2="115" y2="32485" stroke="black" stroke-width="3"/><text x="120" y="32485">1873</text><a xlink:href="Personography.html#" xlink:title="View the Personography Entry"><text x="200" y="32485"/></a></g><g><line x1="50" y1="32850" x2="115" y2="32850" stroke="black" stroke-width="3"/><text x="120" y="32850">1874</text><a xlink:href="Personography.html#" xlink:title="View the Personography Entry"><text x="200" y="32850"/></a></g><g><line x1="50" y1="33215" x2="115" y2="33215" stroke="black" stroke-width="3"/><text x="120" y="33215">1875</text><a xlink:href="Personography.html#" xlink:title="View the Personography Entry"><text x="200" y="33215"/></a></g><g><line x1="50" y1="33580" x2="115" y2="33580" stroke="black" stroke-width="3"/><text x="120" y="33580">1876</text><a xlink:href="Personography.html#CO" xlink:title="View the Personography Entry"><text x="200" y="33580">Clyde Overholt</text></a></g><g><line x1="50" y1="33945" x2="115" y2="33945" stroke="black" stroke-width="3"/><text x="120" y="33945">1877</text><a xlink:href="Personography.html#KFO" xlink:title="View the Personography Entry"><text x="200" y="33945">Karl Frick Overholt</text></a></g></g></svg>