<?xml version="1.0" encoding="UTF-8"?>
<svg xmlns="http://www.w3.org/2000/svg" width="500" height="3000"><g transform="translate(30, 100)"><line x1="100" y1="0" x2="100" y2="2555" style="stroke-width: 40; stroke: #4d004d;"/><g><text x="10" y="0">1818</text><line x1="50" y1="0" x2="200" y2="0" style="stroke-width: 2; stroke: grey;"/><circle cx="100" cy="0" r="1" fill="red"/><text x="210" y="0">Letters Coded: 1</text></g><g><text x="10" y="365">1819</text><line x1="50" y1="365" x2="200" y2="365" style="stroke-width: 2; stroke: grey;"/><circle cx="100" cy="365" r="18" fill="red"/><text x="210" y="365">Letters Coded: 18</text></g><g><text x="10" y="730">1820</text><line x1="50" y1="730" x2="200" y2="730" style="stroke-width: 2; stroke: grey;"/><circle cx="100" cy="730" r="10" fill="red"/><text x="210" y="730">Letters Coded: 10</text></g><g><text x="10" y="1095">1821</text><line x1="50" y1="1095" x2="200" y2="1095" style="stroke-width: 2; stroke: grey;"/><circle cx="100" cy="1095" r="17" fill="red"/><text x="210" y="1095">Letters Coded: 17</text></g><g><text x="10" y="1460">1822</text><line x1="50" y1="1460" x2="200" y2="1460" style="stroke-width: 2; stroke: grey;"/><circle cx="100" cy="1460" r="5" fill="red"/><text x="210" y="1460">Letters Coded: 5</text></g><g><text x="10" y="1825">1823</text><line x1="50" y1="1825" x2="200" y2="1825" style="stroke-width: 2; stroke: grey;"/><circle cx="100" cy="1825" r="4" fill="red"/><text x="210" y="1825">Letters Coded: 4</text></g><g><text x="10" y="2190">1824</text><line x1="50" y1="2190" x2="200" y2="2190" style="stroke-width: 2; stroke: grey;"/><circle cx="100" cy="2190" r="1" fill="red"/><text x="210" y="2190">Letters Coded: 1</text></g><g><text x="10" y="2555">1825</text><line x1="50" y1="2555" x2="200" y2="2555" style="stroke-width: 2; stroke: grey;"/><circle cx="100" cy="2555" r="4" fill="red"/><text x="210" y="2555">Letters Coded: 4</text></g></g></svg>