<?xml version="1.0" encoding="UTF-8"?>
<svg width="2000" height="3000"><g transform="translate(30, 30)"><line x1="0" y1="0" x2="0" y2="1900" style="stroke:blue;stroke-width:2;"/><g><circle cx="0" cy="0" r="11" stroke="purple" stroke-width="3" fill="violet"/><text x="30" y="0">1999</text><text x="80" y="0">Number of works: 106</text></g><g><circle cx="0" cy="100" r="1" stroke="purple" stroke-width="3" fill="violet"/><text x="30" y="100">2000</text><text x="80" y="100">Number of works: 0</text></g><g><circle cx="0" cy="200" r="11" stroke="purple" stroke-width="3" fill="violet"/><text x="30" y="200">2001</text><text x="80" y="200">Number of works: 106</text></g><g><circle cx="0" cy="300" r="11" stroke="purple" stroke-width="3" fill="violet"/><text x="30" y="300">2002</text><text x="80" y="300">Number of works: 106</text></g><g><circle cx="0" cy="400" r="11" stroke="purple" stroke-width="3" fill="violet"/><text x="30" y="400">2003</text><text x="80" y="400">Number of works: 106</text></g><g><circle cx="0" cy="500" r="11" stroke="purple" stroke-width="3" fill="violet"/><text x="30" y="500">2004</text><text x="80" y="500">Number of works: 106</text></g><g><circle cx="0" cy="600" r="11" stroke="purple" stroke-width="3" fill="violet"/><text x="30" y="600">2005</text><text x="80" y="600">Number of works: 106</text></g><g><circle cx="0" cy="700" r="11" stroke="purple" stroke-width="3" fill="violet"/><text x="30" y="700">2006</text><text x="80" y="700">Number of works: 106</text></g><g><circle cx="0" cy="800" r="11" stroke="purple" stroke-width="3" fill="violet"/><text x="30" y="800">2007</text><text x="80" y="800">Number of works: 106</text></g><g><circle cx="0" cy="900" r="11" stroke="purple" stroke-width="3" fill="violet"/><text x="30" y="900">2008</text><text x="80" y="900">Number of works: 106</text></g><g><circle cx="0" cy="1000" r="11" stroke="purple" stroke-width="3" fill="violet"/><text x="30" y="1000">2009</text><text x="80" y="1000">Number of works: 106</text></g><g><circle cx="0" cy="1100" r="11" stroke="purple" stroke-width="3" fill="violet"/><text x="30" y="1100">2010</text><text x="80" y="1100">Number of works: 106</text></g><g><circle cx="0" cy="1200" r="11" stroke="purple" stroke-width="3" fill="violet"/><text x="30" y="1200">2011</text><text x="80" y="1200">Number of works: 106</text></g><g><circle cx="0" cy="1300" r="11" stroke="purple" stroke-width="3" fill="violet"/><text x="30" y="1300">2012</text><text x="80" y="1300">Number of works: 106</text></g><g><circle cx="0" cy="1400" r="11" stroke="purple" stroke-width="3" fill="violet"/><text x="30" y="1400">2013</text><text x="80" y="1400">Number of works: 106</text></g><g><circle cx="0" cy="1500" r="11" stroke="purple" stroke-width="3" fill="violet"/><text x="30" y="1500">2014</text><text x="80" y="1500">Number of works: 106</text></g><g><circle cx="0" cy="1600" r="11" stroke="purple" stroke-width="3" fill="violet"/><text x="30" y="1600">2015</text><text x="80" y="1600">Number of works: 106</text></g><g><circle cx="0" cy="1700" r="11" stroke="purple" stroke-width="3" fill="violet"/><text x="30" y="1700">2016</text><text x="80" y="1700">Number of works: 106</text></g><g><circle cx="0" cy="1800" r="11" stroke="purple" stroke-width="3" fill="violet"/><text x="30" y="1800">2017</text><text x="80" y="1800">Number of works: 106</text></g><g><circle cx="0" cy="1900" r="11" stroke="purple" stroke-width="3" fill="violet"/><text x="30" y="1900">2018</text><text x="80" y="1900">Number of works: 106</text></g></g></svg>