<svg xmlns="http://www.w3.org/2000/svg" width="700" height="700" viewBox="0,0,1500,800">
<g transform="translate(100, 800)">
<!-- TITLE -->
<text x="10" y="-670" style="font-size:30px">Geographic Distribution of Families in Brush Creek Cemetery (gt 3 Deaths)</text>
<!-- Y-Axis -->
<line x1="0" y1="0" x2="0" y2="-600" stroke="black" stroke-width="3"/>
<text x="-30" y="-600">12</text>
<text x="-30" y="-300">6</text>
<text x="-30" y="0">0</text>
<!-- X-Axis -->
<line x1="0" y1="0" x2="1200" y2="0" stroke="black" stroke-width="3"/>
<g id="Helman">
<text x="100" y="30">Helman</text>
<text x="100" y="-615">12</text>
<rect x="100" y="-600" width="20" height="600" style="stroke: black; stroke-width:1; fill:none;"/>
</g>
<g id="Gongaware">
<text x="200" y="30">Gongaware</text>
<text x="200" y="-565">11</text>
<rect x="200" y="-550" width="20" height="550" style="stroke: black; stroke-width:1; fill:none;"/>
</g>
<g id="Brezler">
<text x="300" y="30">Brezler</text>
<text x="300" y="-315">6</text>
<rect x="300" y="-300" width="20" height="300" style="stroke: black; stroke-width:1; fill:none;"/>
</g>
<g id="McCaulley">
<text x="400" y="30">McCaulley</text>
<text x="400" y="-315">6</text>
<rect x="400" y="-300" width="20" height="300" style="stroke: black; stroke-width:1; fill:none;"/>
</g>
<g id="McCune">
<text x="500" y="30">McCune</text>
<text x="500" y="-265">5</text>
<rect x="500" y="-250" width="20" height="250" style="stroke: black; stroke-width:1; fill:none;"/>
</g>
<g id="Woodruff">
<text x="600" y="30">Woodruff</text>
<text x="600" y="-265">5</text>
<rect x="600" y="-250" width="20" height="250" style="stroke: black; stroke-width:1; fill:none;"/>
</g>
<g id="Lauffer">
<text x="700" y="30">Lauffer</text>
<text x="700" y="-265">5</text>
<rect x="700" y="-250" width="20" height="250" style="stroke: black; stroke-width:1; fill:none;"/>
</g>
<g id="King">
<text x="800" y="30">King</text>
<text x="800" y="-215">4</text>
<rect x="800" y="-200" width="20" height="200" style="stroke: black; stroke-width:1; fill:none;"/>
</g>
<g id="Bostwick">
<text x="900" y="30">Bostwick</text>
<text x="900" y="-215">4</text>
<rect x="900" y="-200" width="20" height="200" style="stroke: black; stroke-width:1; fill:none;"/>
</g>
<g id="Vogel">
<text x="1000" y="30">Vogel</text>
<text x="1000" y="-215">4</text>
<rect x="1000" y="-200" width="20" height="200" style="stroke: black; stroke-width:1; fill:none;"/>
</g>
<g id="Walthour">
<text x="1100" y="30">Walthour</text>
<text x="1100" y="-215">4</text>
<rect x="1100" y="-200" width="20" height="200" style="stroke: black; stroke-width:1; fill:none;"/>
</g>
</g>
</svg>

