<?xml version="1.0" encoding="UTF-8"?>
<svg width="2500" height="3000"><g transform="translate (30,30)"><line x1="0" y1="0" x2="0" y2="1900" style="stroke:blue"/><g><circle cx="0" cy="0" r="1" stroke="purple" stroke-width="3" fill="violet"/><text x="5" y="0">1999</text><rect text="canvas" x="50" y="40" height="100" width="100" stroke="blue" fill="blue">40</rect><rect text="spray_paint" x="50" y="66" height="50" width="50" stroke="red" fill="red"/></g><g><circle cx="0" cy="100" r="0" stroke="purple" stroke-width="3" fill="violet"/><text x="5" y="100">2000</text><rect text="canvas" x="50" y="40" height="100" width="100" stroke="blue" fill="blue">40</rect><rect text="spray_paint" x="50" y="66" height="50" width="50" stroke="red" fill="red"/></g><g><circle cx="0" cy="200" r="1" stroke="purple" stroke-width="3" fill="violet"/><text x="5" y="200">2001</text><rect text="canvas" x="50" y="40" height="100" width="100" stroke="blue" fill="blue">40</rect><rect text="spray_paint" x="50" y="66" height="50" width="50" stroke="red" fill="red"/></g><g><circle cx="0" cy="300" r="2" stroke="purple" stroke-width="3" fill="violet"/><text x="5" y="300">2002</text><rect text="canvas" x="50" y="40" height="100" width="100" stroke="blue" fill="blue">40</rect><rect text="spray_paint" x="50" y="66" height="50" width="50" stroke="red" fill="red"/></g><g><circle cx="0" cy="400" r="13" stroke="purple" stroke-width="3" fill="violet"/><text x="5" y="400">2003</text><rect text="canvas" x="50" y="40" height="100" width="100" stroke="blue" fill="blue">40</rect><rect text="spray_paint" x="50" y="66" height="50" width="50" stroke="red" fill="red"/></g><g><circle cx="0" cy="500" r="13" stroke="purple" stroke-width="3" fill="violet"/><text x="5" y="500">2004</text><rect text="canvas" x="50" y="40" height="100" width="100" stroke="blue" fill="blue">40</rect><rect text="spray_paint" x="50" y="66" height="50" width="50" stroke="red" fill="red"/></g><g><circle cx="0" cy="600" r="7" stroke="purple" stroke-width="3" fill="violet"/><text x="5" y="600">2005</text><rect text="canvas" x="50" y="40" height="100" width="100" stroke="blue" fill="blue">40</rect><rect text="spray_paint" x="50" y="66" height="50" width="50" stroke="red" fill="red"/></g><g><circle cx="0" cy="700" r="9" stroke="purple" stroke-width="3" fill="violet"/><text x="5" y="700">2006</text><rect text="canvas" x="50" y="40" height="100" width="100" stroke="blue" fill="blue">40</rect><rect text="spray_paint" x="50" y="66" height="50" width="50" stroke="red" fill="red"/></g><g><circle cx="0" cy="800" r="7" stroke="purple" stroke-width="3" fill="violet"/><text x="5" y="800">2007</text><rect text="canvas" x="50" y="40" height="100" width="100" stroke="blue" fill="blue">40</rect><rect text="spray_paint" x="50" y="66" height="50" width="50" stroke="red" fill="red"/></g><g><circle cx="0" cy="900" r="6" stroke="purple" stroke-width="3" fill="violet"/><text x="5" y="900">2008</text><rect text="canvas" x="50" y="40" height="100" width="100" stroke="blue" fill="blue">40</rect><rect text="spray_paint" x="50" y="66" height="50" width="50" stroke="red" fill="red"/></g><g><circle cx="0" cy="1000" r="5" stroke="purple" stroke-width="3" fill="violet"/><text x="5" y="1000">2009</text><rect text="canvas" x="50" y="40" height="100" width="100" stroke="blue" fill="blue">40</rect><rect text="spray_paint" x="50" y="66" height="50" width="50" stroke="red" fill="red"/></g><g><circle cx="0" cy="1100" r="7" stroke="purple" stroke-width="3" fill="violet"/><text x="5" y="1100">2010</text><rect text="canvas" x="50" y="40" height="100" width="100" stroke="blue" fill="blue">40</rect><rect text="spray_paint" x="50" y="66" height="50" width="50" stroke="red" fill="red"/></g><g><circle cx="0" cy="1200" r="8" stroke="purple" stroke-width="3" fill="violet"/><text x="5" y="1200">2011</text><rect text="canvas" x="50" y="40" height="100" width="100" stroke="blue" fill="blue">40</rect><rect text="spray_paint" x="50" y="66" height="50" width="50" stroke="red" fill="red"/></g><g><circle cx="0" cy="1300" r="4" stroke="purple" stroke-width="3" fill="violet"/><text x="5" y="1300">2012</text><rect text="canvas" x="50" y="40" height="100" width="100" stroke="blue" fill="blue">40</rect><rect text="spray_paint" x="50" y="66" height="50" width="50" stroke="red" fill="red"/></g><g><circle cx="0" cy="1400" r="4" stroke="purple" stroke-width="3" fill="violet"/><text x="5" y="1400">2013</text><rect text="canvas" x="50" y="40" height="100" width="100" stroke="blue" fill="blue">40</rect><rect text="spray_paint" x="50" y="66" height="50" width="50" stroke="red" fill="red"/></g><g><circle cx="0" cy="1500" r="3" stroke="purple" stroke-width="3" fill="violet"/><text x="5" y="1500">2014</text><rect text="canvas" x="50" y="40" height="100" width="100" stroke="blue" fill="blue">40</rect><rect text="spray_paint" x="50" y="66" height="50" width="50" stroke="red" fill="red"/></g><g><circle cx="0" cy="1600" r="5" stroke="purple" stroke-width="3" fill="violet"/><text x="5" y="1600">2015</text><rect text="canvas" x="50" y="40" height="100" width="100" stroke="blue" fill="blue">40</rect><rect text="spray_paint" x="50" y="66" height="50" width="50" stroke="red" fill="red"/></g><g><circle cx="0" cy="1700" r="1" stroke="purple" stroke-width="3" fill="violet"/><text x="5" y="1700">2016</text><rect text="canvas" x="50" y="40" height="100" width="100" stroke="blue" fill="blue">40</rect><rect text="spray_paint" x="50" y="66" height="50" width="50" stroke="red" fill="red"/></g><g><circle cx="0" cy="1800" r="2" stroke="purple" stroke-width="3" fill="violet"/><text x="5" y="1800">2017</text><rect text="canvas" x="50" y="40" height="100" width="100" stroke="blue" fill="blue">40</rect><rect text="spray_paint" x="50" y="66" height="50" width="50" stroke="red" fill="red"/></g><g><circle cx="0" cy="1900" r="8" stroke="purple" stroke-width="3" fill="violet"/><text x="5" y="1900">2018</text><rect text="canvas" x="50" y="40" height="100" width="100" stroke="blue" fill="blue">40</rect><rect text="spray_paint" x="50" y="66" height="50" width="50" stroke="red" fill="red"/></g></g></svg>