<?xml version="1.0" encoding="UTF-8"?>
<svg xmlns="http://www.w3.org/2000/svg" width="500" height="3000"><g transform="translate(30, 100)"><line x1="100" y1="0" x2="100" y2="2555" stroke="maroon" stroke-width="5"/><g><line x1="50" y1="0" x2="115" y2="0" stroke="black" stroke-width="3"/><text x="120" y="5">1818</text><circle cx="50" cy="0" r="2" stroke="maroon" fill="lightgrey" stroke-width="4"/></g><g><line x1="50" y1="365" x2="115" y2="365" stroke="black" stroke-width="3"/><text x="120" y="370">1819</text><circle cx="50" cy="365" r="40" stroke="maroon" fill="lightgrey" stroke-width="4"/></g><g><line x1="50" y1="730" x2="115" y2="730" stroke="black" stroke-width="3"/><text x="120" y="735">1820</text><circle cx="50" cy="730" r="20" stroke="maroon" fill="lightgrey" stroke-width="4"/></g><g><line x1="50" y1="1095" x2="115" y2="1095" stroke="black" stroke-width="3"/><text x="120" y="1100">1821</text><circle cx="50" cy="1095" r="32" stroke="maroon" fill="lightgrey" stroke-width="4"/></g><g><line x1="50" y1="1460" x2="115" y2="1460" stroke="black" stroke-width="3"/><text x="120" y="1465">1822</text><circle cx="50" cy="1460" r="10" stroke="maroon" fill="lightgrey" stroke-width="4"/></g><g><line x1="50" y1="1825" x2="115" y2="1825" stroke="black" stroke-width="3"/><text x="120" y="1830">1823</text><circle cx="50" cy="1825" r="18" stroke="maroon" fill="lightgrey" stroke-width="4"/></g><g><line x1="50" y1="2190" x2="115" y2="2190" stroke="black" stroke-width="3"/><text x="120" y="2195">1824</text><circle cx="50" cy="2190" r="2" stroke="maroon" fill="lightgrey" stroke-width="4"/></g><g><line x1="50" y1="2555" x2="115" y2="2555" stroke="black" stroke-width="3"/><text x="120" y="2560">1825</text><circle cx="50" cy="2555" r="8" stroke="maroon" fill="lightgrey" stroke-width="4"/></g></g></svg>