<?xml version="1.0" encoding="UTF-8"?>
<svg xmlns="http://www.w3.org/2000/svg" width="500" height="3000"><g transform="translate(30, 100)"><line x1="25" y1="0" x2="25" y2="2555" style="stroke:black;stroke-width:6"/><g><line x1="25" y1="0" x2="50" y2="0" style="stroke:black;stroke-width:5"/><text x="-25" y="0">1818</text><circle cx="50" cy="0" r="1" stroke="black" fill="aqua" stroke-width="3"/></g><g><line x1="25" y1="365" x2="50" y2="365" style="stroke:black;stroke-width:5"/><text x="-25" y="365">1819</text><circle cx="50" cy="365" r="18" stroke="black" fill="aqua" stroke-width="3"/></g><g><line x1="25" y1="730" x2="50" y2="730" style="stroke:black;stroke-width:5"/><text x="-25" y="730">1820</text><circle cx="50" cy="730" r="10" stroke="black" fill="aqua" stroke-width="3"/></g><g><line x1="25" y1="1095" x2="50" y2="1095" style="stroke:black;stroke-width:5"/><text x="-25" y="1095">1821</text><circle cx="50" cy="1095" r="17" stroke="black" fill="aqua" stroke-width="3"/></g><g><line x1="25" y1="1460" x2="50" y2="1460" style="stroke:black;stroke-width:5"/><text x="-25" y="1460">1822</text><circle cx="50" cy="1460" r="5" stroke="black" fill="aqua" stroke-width="3"/></g><g><line x1="25" y1="1825" x2="50" y2="1825" style="stroke:black;stroke-width:5"/><text x="-25" y="1825">1823</text><circle cx="50" cy="1825" r="4" stroke="black" fill="aqua" stroke-width="3"/></g><g><line x1="25" y1="2190" x2="50" y2="2190" style="stroke:black;stroke-width:5"/><text x="-25" y="2190">1824</text><circle cx="50" cy="2190" r="1" stroke="black" fill="aqua" stroke-width="3"/></g><g><line x1="25" y1="2555" x2="50" y2="2555" style="stroke:black;stroke-width:5"/><text x="-25" y="2555">1825</text><circle cx="50" cy="2555" r="4" stroke="black" fill="aqua" stroke-width="3"/></g></g></svg>